ISO-10303-21;
HEADER;
FILE_DESCRIPTION(('Open CASCADE Model'),'2;1');
FILE_NAME('Open CASCADE Shape Model','2026-08-25T09:57:02',('Author'),(
    'Open CASCADE'),'Open CASCADE STEP processor 7.9','Open CASCADE 7.9'
  ,'Unknown');
FILE_SCHEMA(('AUTOMOTIVE_DESIGN { 1 0 10303 214 1 1 1 1 }'));
ENDSEC;
DATA;
#1 = APPLICATION_PROTOCOL_DEFINITION('international standard',
  'automotive_design',2000,#2);
#2 = APPLICATION_CONTEXT(
  'core data for automotive mechanical design processes');
#3 = SHAPE_DEFINITION_REPRESENTATION(#4,#10);
#4 = PRODUCT_DEFINITION_SHAPE('','',#5);
#5 = PRODUCT_DEFINITION('design','',#6,#9);
#6 = PRODUCT_DEFINITION_FORMATION('','',#7);
#7 = PRODUCT('Open CASCADE STEP translator 7.9 9',
  'Open CASCADE STEP translator 7.9 9','',(#8));
#8 = PRODUCT_CONTEXT('',#2,'mechanical');
#9 = PRODUCT_DEFINITION_CONTEXT('part definition',#2,'design');
#10 = ADVANCED_BREP_SHAPE_REPRESENTATION('',(#11,#15),#1309);
#11 = AXIS2_PLACEMENT_3D('',#12,#13,#14);
#12 = CARTESIAN_POINT('',(0.,0.,0.));
#13 = DIRECTION('',(0.,0.,1.));
#14 = DIRECTION('',(1.,0.,-0.));
#15 = MANIFOLD_SOLID_BREP('',#16);
#16 = CLOSED_SHELL('',(#17,#137,#213,#351,#400,#427,#465,#538,#593,#621,
    #1073,#1135,#1212,#1240,#1244,#1250,#1305));
#17 = ADVANCED_FACE('',(#18),#32,.F.);
#18 = FACE_BOUND('',#19,.F.);
#19 = EDGE_LOOP('',(#20,#55,#83,#111));
#20 = ORIENTED_EDGE('',*,*,#21,.F.);
#21 = EDGE_CURVE('',#22,#24,#26,.T.);
#22 = VERTEX_POINT('',#23);
#23 = CARTESIAN_POINT('',(17.,-12.,-91.));
#24 = VERTEX_POINT('',#25);
#25 = CARTESIAN_POINT('',(17.,-12.,-59.));
#26 = SURFACE_CURVE('',#27,(#31,#43),.PCURVE_S1.);
#27 = LINE('',#28,#29);
#28 = CARTESIAN_POINT('',(17.,-12.,-91.));
#29 = VECTOR('',#30,1.);
#30 = DIRECTION('',(0.,0.,1.));
#31 = PCURVE('',#32,#37);
#32 = PLANE('',#33);
#33 = AXIS2_PLACEMENT_3D('',#34,#35,#36);
#34 = CARTESIAN_POINT('',(17.,-12.,-91.));
#35 = DIRECTION('',(1.,0.,-0.));
#36 = DIRECTION('',(0.,0.,1.));
#37 = DEFINITIONAL_REPRESENTATION('',(#38),#42);
#38 = LINE('',#39,#40);
#39 = CARTESIAN_POINT('',(0.,0.));
#40 = VECTOR('',#41,1.);
#41 = DIRECTION('',(1.,0.));
#42 = ( GEOMETRIC_REPRESENTATION_CONTEXT(2) 
PARAMETRIC_REPRESENTATION_CONTEXT() REPRESENTATION_CONTEXT('2D SPACE',''
  ) );
#43 = PCURVE('',#44,#49);
#44 = PLANE('',#45);
#45 = AXIS2_PLACEMENT_3D('',#46,#47,#48);
#46 = CARTESIAN_POINT('',(17.,-12.,-91.));
#47 = DIRECTION('',(-0.,1.,0.));
#48 = DIRECTION('',(0.,0.,1.));
#49 = DEFINITIONAL_REPRESENTATION('',(#50),#54);
#50 = LINE('',#51,#52);
#51 = CARTESIAN_POINT('',(0.,0.));
#52 = VECTOR('',#53,1.);
#53 = DIRECTION('',(1.,0.));
#54 = ( GEOMETRIC_REPRESENTATION_CONTEXT(2) 
PARAMETRIC_REPRESENTATION_CONTEXT() REPRESENTATION_CONTEXT('2D SPACE',''
  ) );
#55 = ORIENTED_EDGE('',*,*,#56,.T.);
#56 = EDGE_CURVE('',#22,#57,#59,.T.);
#57 = VERTEX_POINT('',#58);
#58 = CARTESIAN_POINT('',(17.,12.,-91.));
#59 = SURFACE_CURVE('',#60,(#64,#71),.PCURVE_S1.);
#60 = LINE('',#61,#62);
#61 = CARTESIAN_POINT('',(17.,-12.,-91.));
#62 = VECTOR('',#63,1.);
#63 = DIRECTION('',(-0.,1.,0.));
#64 = PCURVE('',#32,#65);
#65 = DEFINITIONAL_REPRESENTATION('',(#66),#70);
#66 = LINE('',#67,#68);
#67 = CARTESIAN_POINT('',(0.,0.));
#68 = VECTOR('',#69,1.);
#69 = DIRECTION('',(0.,-1.));
#70 = ( GEOMETRIC_REPRESENTATION_CONTEXT(2) 
PARAMETRIC_REPRESENTATION_CONTEXT() REPRESENTATION_CONTEXT('2D SPACE',''
  ) );
#71 = PCURVE('',#72,#77);
#72 = PLANE('',#73);
#73 = AXIS2_PLACEMENT_3D('',#74,#75,#76);
#74 = CARTESIAN_POINT('',(17.,-12.,-91.));
#75 = DIRECTION('',(0.,0.,1.));
#76 = DIRECTION('',(1.,0.,-0.));
#77 = DEFINITIONAL_REPRESENTATION('',(#78),#82);
#78 = LINE('',#79,#80);
#79 = CARTESIAN_POINT('',(0.,0.));
#80 = VECTOR('',#81,1.);
#81 = DIRECTION('',(0.,1.));
#82 = ( GEOMETRIC_REPRESENTATION_CONTEXT(2) 
PARAMETRIC_REPRESENTATION_CONTEXT() REPRESENTATION_CONTEXT('2D SPACE',''
  ) );
#83 = ORIENTED_EDGE('',*,*,#84,.T.);
#84 = EDGE_CURVE('',#57,#85,#87,.T.);
#85 = VERTEX_POINT('',#86);
#86 = CARTESIAN_POINT('',(17.,12.,-59.));
#87 = SURFACE_CURVE('',#88,(#92,#99),.PCURVE_S1.);
#88 = LINE('',#89,#90);
#89 = CARTESIAN_POINT('',(17.,12.,-91.));
#90 = VECTOR('',#91,1.);
#91 = DIRECTION('',(0.,0.,1.));
#92 = PCURVE('',#32,#93);
#93 = DEFINITIONAL_REPRESENTATION('',(#94),#98);
#94 = LINE('',#95,#96);
#95 = CARTESIAN_POINT('',(0.,-24.));
#96 = VECTOR('',#97,1.);
#97 = DIRECTION('',(1.,0.));
#98 = ( GEOMETRIC_REPRESENTATION_CONTEXT(2) 
PARAMETRIC_REPRESENTATION_CONTEXT() REPRESENTATION_CONTEXT('2D SPACE',''
  ) );
#99 = PCURVE('',#100,#105);
#100 = PLANE('',#101);
#101 = AXIS2_PLACEMENT_3D('',#102,#103,#104);
#102 = CARTESIAN_POINT('',(17.,12.,-91.));
#103 = DIRECTION('',(-0.,1.,0.));
#104 = DIRECTION('',(0.,0.,1.));
#105 = DEFINITIONAL_REPRESENTATION('',(#106),#110);
#106 = LINE('',#107,#108);
#107 = CARTESIAN_POINT('',(0.,0.));
#108 = VECTOR('',#109,1.);
#109 = DIRECTION('',(1.,0.));
#110 = ( GEOMETRIC_REPRESENTATION_CONTEXT(2) 
PARAMETRIC_REPRESENTATION_CONTEXT() REPRESENTATION_CONTEXT('2D SPACE',''
  ) );
#111 = ORIENTED_EDGE('',*,*,#112,.F.);
#112 = EDGE_CURVE('',#24,#85,#113,.T.);
#113 = SURFACE_CURVE('',#114,(#118,#125),.PCURVE_S1.);
#114 = LINE('',#115,#116);
#115 = CARTESIAN_POINT('',(17.,-12.,-59.));
#116 = VECTOR('',#117,1.);
#117 = DIRECTION('',(-0.,1.,0.));
#118 = PCURVE('',#32,#119);
#119 = DEFINITIONAL_REPRESENTATION('',(#120),#124);
#120 = LINE('',#121,#122);
#121 = CARTESIAN_POINT('',(32.,0.));
#122 = VECTOR('',#123,1.);
#123 = DIRECTION('',(0.,-1.));
#124 = ( GEOMETRIC_REPRESENTATION_CONTEXT(2) 
PARAMETRIC_REPRESENTATION_CONTEXT() REPRESENTATION_CONTEXT('2D SPACE',''
  ) );
#125 = PCURVE('',#126,#131);
#126 = PLANE('',#127);
#127 = AXIS2_PLACEMENT_3D('',#128,#129,#130);
#128 = CARTESIAN_POINT('',(17.,-12.,-59.));
#129 = DIRECTION('',(0.,0.,1.));
#130 = DIRECTION('',(1.,0.,-0.));
#131 = DEFINITIONAL_REPRESENTATION('',(#132),#136);
#132 = LINE('',#133,#134);
#133 = CARTESIAN_POINT('',(0.,0.));
#134 = VECTOR('',#135,1.);
#135 = DIRECTION('',(0.,1.));
#136 = ( GEOMETRIC_REPRESENTATION_CONTEXT(2) 
PARAMETRIC_REPRESENTATION_CONTEXT() REPRESENTATION_CONTEXT('2D SPACE',''
  ) );
#137 = ADVANCED_FACE('',(#138),#44,.F.);
#138 = FACE_BOUND('',#139,.F.);
#139 = EDGE_LOOP('',(#140,#163,#164,#187));
#140 = ORIENTED_EDGE('',*,*,#141,.F.);
#141 = EDGE_CURVE('',#22,#142,#144,.T.);
#142 = VERTEX_POINT('',#143);
#143 = CARTESIAN_POINT('',(43.,-12.,-91.));
#144 = SURFACE_CURVE('',#145,(#149,#156),.PCURVE_S1.);
#145 = LINE('',#146,#147);
#146 = CARTESIAN_POINT('',(17.,-12.,-91.));
#147 = VECTOR('',#148,1.);
#148 = DIRECTION('',(1.,0.,-0.));
#149 = PCURVE('',#44,#150);
#150 = DEFINITIONAL_REPRESENTATION('',(#151),#155);
#151 = LINE('',#152,#153);
#152 = CARTESIAN_POINT('',(0.,0.));
#153 = VECTOR('',#154,1.);
#154 = DIRECTION('',(0.,1.));
#155 = ( GEOMETRIC_REPRESENTATION_CONTEXT(2) 
PARAMETRIC_REPRESENTATION_CONTEXT() REPRESENTATION_CONTEXT('2D SPACE',''
  ) );
#156 = PCURVE('',#72,#157);
#157 = DEFINITIONAL_REPRESENTATION('',(#158),#162);
#158 = LINE('',#159,#160);
#159 = CARTESIAN_POINT('',(0.,0.));
#160 = VECTOR('',#161,1.);
#161 = DIRECTION('',(1.,0.));
#162 = ( GEOMETRIC_REPRESENTATION_CONTEXT(2) 
PARAMETRIC_REPRESENTATION_CONTEXT() REPRESENTATION_CONTEXT('2D SPACE',''
  ) );
#163 = ORIENTED_EDGE('',*,*,#21,.T.);
#164 = ORIENTED_EDGE('',*,*,#165,.T.);
#165 = EDGE_CURVE('',#24,#166,#168,.T.);
#166 = VERTEX_POINT('',#167);
#167 = CARTESIAN_POINT('',(43.,-12.,-59.));
#168 = SURFACE_CURVE('',#169,(#173,#180),.PCURVE_S1.);
#169 = LINE('',#170,#171);
#170 = CARTESIAN_POINT('',(17.,-12.,-59.));
#171 = VECTOR('',#172,1.);
#172 = DIRECTION('',(1.,0.,-0.));
#173 = PCURVE('',#44,#174);
#174 = DEFINITIONAL_REPRESENTATION('',(#175),#179);
#175 = LINE('',#176,#177);
#176 = CARTESIAN_POINT('',(32.,0.));
#177 = VECTOR('',#178,1.);
#178 = DIRECTION('',(0.,1.));
#179 = ( GEOMETRIC_REPRESENTATION_CONTEXT(2) 
PARAMETRIC_REPRESENTATION_CONTEXT() REPRESENTATION_CONTEXT('2D SPACE',''
  ) );
#180 = PCURVE('',#126,#181);
#181 = DEFINITIONAL_REPRESENTATION('',(#182),#186);
#182 = LINE('',#183,#184);
#183 = CARTESIAN_POINT('',(0.,0.));
#184 = VECTOR('',#185,1.);
#185 = DIRECTION('',(1.,0.));
#186 = ( GEOMETRIC_REPRESENTATION_CONTEXT(2) 
PARAMETRIC_REPRESENTATION_CONTEXT() REPRESENTATION_CONTEXT('2D SPACE',''
  ) );
#187 = ORIENTED_EDGE('',*,*,#188,.F.);
#188 = EDGE_CURVE('',#142,#166,#189,.T.);
#189 = SURFACE_CURVE('',#190,(#194,#201),.PCURVE_S1.);
#190 = LINE('',#191,#192);
#191 = CARTESIAN_POINT('',(43.,-12.,-91.));
#192 = VECTOR('',#193,1.);
#193 = DIRECTION('',(0.,0.,1.));
#194 = PCURVE('',#44,#195);
#195 = DEFINITIONAL_REPRESENTATION('',(#196),#200);
#196 = LINE('',#197,#198);
#197 = CARTESIAN_POINT('',(0.,26.));
#198 = VECTOR('',#199,1.);
#199 = DIRECTION('',(1.,0.));
#200 = ( GEOMETRIC_REPRESENTATION_CONTEXT(2) 
PARAMETRIC_REPRESENTATION_CONTEXT() REPRESENTATION_CONTEXT('2D SPACE',''
  ) );
#201 = PCURVE('',#202,#207);
#202 = PLANE('',#203);
#203 = AXIS2_PLACEMENT_3D('',#204,#205,#206);
#204 = CARTESIAN_POINT('',(43.,-12.,-91.));
#205 = DIRECTION('',(1.,0.,-0.));
#206 = DIRECTION('',(0.,0.,1.));
#207 = DEFINITIONAL_REPRESENTATION('',(#208),#212);
#208 = LINE('',#209,#210);
#209 = CARTESIAN_POINT('',(0.,0.));
#210 = VECTOR('',#211,1.);
#211 = DIRECTION('',(1.,0.));
#212 = ( GEOMETRIC_REPRESENTATION_CONTEXT(2) 
PARAMETRIC_REPRESENTATION_CONTEXT() REPRESENTATION_CONTEXT('2D SPACE',''
  ) );
#213 = ADVANCED_FACE('',(#214,#262),#126,.T.);
#214 = FACE_BOUND('',#215,.T.);
#215 = EDGE_LOOP('',(#216,#217,#218,#241));
#216 = ORIENTED_EDGE('',*,*,#112,.F.);
#217 = ORIENTED_EDGE('',*,*,#165,.T.);
#218 = ORIENTED_EDGE('',*,*,#219,.T.);
#219 = EDGE_CURVE('',#166,#220,#222,.T.);
#220 = VERTEX_POINT('',#221);
#221 = CARTESIAN_POINT('',(43.,12.,-59.));
#222 = SURFACE_CURVE('',#223,(#227,#234),.PCURVE_S1.);
#223 = LINE('',#224,#225);
#224 = CARTESIAN_POINT('',(43.,-12.,-59.));
#225 = VECTOR('',#226,1.);
#226 = DIRECTION('',(-0.,1.,0.));
#227 = PCURVE('',#126,#228);
#228 = DEFINITIONAL_REPRESENTATION('',(#229),#233);
#229 = LINE('',#230,#231);
#230 = CARTESIAN_POINT('',(26.,0.));
#231 = VECTOR('',#232,1.);
#232 = DIRECTION('',(0.,1.));
#233 = ( GEOMETRIC_REPRESENTATION_CONTEXT(2) 
PARAMETRIC_REPRESENTATION_CONTEXT() REPRESENTATION_CONTEXT('2D SPACE',''
  ) );
#234 = PCURVE('',#202,#235);
#235 = DEFINITIONAL_REPRESENTATION('',(#236),#240);
#236 = LINE('',#237,#238);
#237 = CARTESIAN_POINT('',(32.,0.));
#238 = VECTOR('',#239,1.);
#239 = DIRECTION('',(0.,-1.));
#240 = ( GEOMETRIC_REPRESENTATION_CONTEXT(2) 
PARAMETRIC_REPRESENTATION_CONTEXT() REPRESENTATION_CONTEXT('2D SPACE',''
  ) );
#241 = ORIENTED_EDGE('',*,*,#242,.F.);
#242 = EDGE_CURVE('',#85,#220,#243,.T.);
#243 = SURFACE_CURVE('',#244,(#248,#255),.PCURVE_S1.);
#244 = LINE('',#245,#246);
#245 = CARTESIAN_POINT('',(17.,12.,-59.));
#246 = VECTOR('',#247,1.);
#247 = DIRECTION('',(1.,0.,-0.));
#248 = PCURVE('',#126,#249);
#249 = DEFINITIONAL_REPRESENTATION('',(#250),#254);
#250 = LINE('',#251,#252);
#251 = CARTESIAN_POINT('',(0.,24.));
#252 = VECTOR('',#253,1.);
#253 = DIRECTION('',(1.,0.));
#254 = ( GEOMETRIC_REPRESENTATION_CONTEXT(2) 
PARAMETRIC_REPRESENTATION_CONTEXT() REPRESENTATION_CONTEXT('2D SPACE',''
  ) );
#255 = PCURVE('',#100,#256);
#256 = DEFINITIONAL_REPRESENTATION('',(#257),#261);
#257 = LINE('',#258,#259);
#258 = CARTESIAN_POINT('',(32.,0.));
#259 = VECTOR('',#260,1.);
#260 = DIRECTION('',(0.,1.));
#261 = ( GEOMETRIC_REPRESENTATION_CONTEXT(2) 
PARAMETRIC_REPRESENTATION_CONTEXT() REPRESENTATION_CONTEXT('2D SPACE',''
  ) );
#262 = FACE_BOUND('',#263,.T.);
#263 = EDGE_LOOP('',(#264,#295,#324));
#264 = ORIENTED_EDGE('',*,*,#265,.F.);
#265 = EDGE_CURVE('',#266,#268,#270,.T.);
#266 = VERTEX_POINT('',#267);
#267 = CARTESIAN_POINT('',(26.,2.56173769149,-59.));
#268 = VERTEX_POINT('',#269);
#269 = CARTESIAN_POINT('',(26.,-2.56173769149,-59.));
#270 = SURFACE_CURVE('',#271,(#276,#283),.PCURVE_S1.);
#271 = CIRCLE('',#272,4.75);
#272 = AXIS2_PLACEMENT_3D('',#273,#274,#275);
#273 = CARTESIAN_POINT('',(22.,0.,-59.));
#274 = DIRECTION('',(0.,0.,1.));
#275 = DIRECTION('',(1.,0.,-0.));
#276 = PCURVE('',#126,#277);
#277 = DEFINITIONAL_REPRESENTATION('',(#278),#282);
#278 = CIRCLE('',#279,4.75);
#279 = AXIS2_PLACEMENT_2D('',#280,#281);
#280 = CARTESIAN_POINT('',(5.,12.));
#281 = DIRECTION('',(1.,0.));
#282 = ( GEOMETRIC_REPRESENTATION_CONTEXT(2) 
PARAMETRIC_REPRESENTATION_CONTEXT() REPRESENTATION_CONTEXT('2D SPACE',''
  ) );
#283 = PCURVE('',#284,#289);
#284 = CYLINDRICAL_SURFACE('',#285,4.75);
#285 = AXIS2_PLACEMENT_3D('',#286,#287,#288);
#286 = CARTESIAN_POINT('',(22.,0.,-64.5));
#287 = DIRECTION('',(0.,0.,1.));
#288 = DIRECTION('',(1.,0.,-0.));
#289 = DEFINITIONAL_REPRESENTATION('',(#290),#294);
#290 = LINE('',#291,#292);
#291 = CARTESIAN_POINT('',(0.,5.5));
#292 = VECTOR('',#293,1.);
#293 = DIRECTION('',(1.,0.));
#294 = ( GEOMETRIC_REPRESENTATION_CONTEXT(2) 
PARAMETRIC_REPRESENTATION_CONTEXT() REPRESENTATION_CONTEXT('2D SPACE',''
  ) );
#295 = ORIENTED_EDGE('',*,*,#296,.F.);
#296 = EDGE_CURVE('',#297,#266,#299,.T.);
#297 = VERTEX_POINT('',#298);
#298 = CARTESIAN_POINT('',(34.75,-1.16341445919E-15,-59.));
#299 = SURFACE_CURVE('',#300,(#305,#312),.PCURVE_S1.);
#300 = CIRCLE('',#301,4.75);
#301 = AXIS2_PLACEMENT_3D('',#302,#303,#304);
#302 = CARTESIAN_POINT('',(30.,0.,-59.));
#303 = DIRECTION('',(0.,0.,1.));
#304 = DIRECTION('',(1.,0.,-0.));
#305 = PCURVE('',#126,#306);
#306 = DEFINITIONAL_REPRESENTATION('',(#307),#311);
#307 = CIRCLE('',#308,4.75);
#308 = AXIS2_PLACEMENT_2D('',#309,#310);
#309 = CARTESIAN_POINT('',(13.,12.));
#310 = DIRECTION('',(1.,0.));
#311 = ( GEOMETRIC_REPRESENTATION_CONTEXT(2) 
PARAMETRIC_REPRESENTATION_CONTEXT() REPRESENTATION_CONTEXT('2D SPACE',''
  ) );
#312 = PCURVE('',#313,#318);
#313 = CYLINDRICAL_SURFACE('',#314,4.75);
#314 = AXIS2_PLACEMENT_3D('',#315,#316,#317);
#315 = CARTESIAN_POINT('',(30.,0.,-64.5));
#316 = DIRECTION('',(0.,0.,1.));
#317 = DIRECTION('',(1.,0.,-0.));
#318 = DEFINITIONAL_REPRESENTATION('',(#319),#323);
#319 = LINE('',#320,#321);
#320 = CARTESIAN_POINT('',(0.,5.5));
#321 = VECTOR('',#322,1.);
#322 = DIRECTION('',(1.,0.));
#323 = ( GEOMETRIC_REPRESENTATION_CONTEXT(2) 
PARAMETRIC_REPRESENTATION_CONTEXT() REPRESENTATION_CONTEXT('2D SPACE',''
  ) );
#324 = ORIENTED_EDGE('',*,*,#325,.F.);
#325 = EDGE_CURVE('',#268,#297,#326,.T.);
#326 = SURFACE_CURVE('',#327,(#332,#339),.PCURVE_S1.);
#327 = CIRCLE('',#328,4.75);
#328 = AXIS2_PLACEMENT_3D('',#329,#330,#331);
#329 = CARTESIAN_POINT('',(30.,0.,-59.));
#330 = DIRECTION('',(0.,0.,1.));
#331 = DIRECTION('',(1.,0.,-0.));
#332 = PCURVE('',#126,#333);
#333 = DEFINITIONAL_REPRESENTATION('',(#334),#338);
#334 = CIRCLE('',#335,4.75);
#335 = AXIS2_PLACEMENT_2D('',#336,#337);
#336 = CARTESIAN_POINT('',(13.,12.));
#337 = DIRECTION('',(1.,0.));
#338 = ( GEOMETRIC_REPRESENTATION_CONTEXT(2) 
PARAMETRIC_REPRESENTATION_CONTEXT() REPRESENTATION_CONTEXT('2D SPACE',''
  ) );
#339 = PCURVE('',#340,#345);
#340 = CYLINDRICAL_SURFACE('',#341,4.75);
#341 = AXIS2_PLACEMENT_3D('',#342,#343,#344);
#342 = CARTESIAN_POINT('',(30.,0.,-64.5));
#343 = DIRECTION('',(0.,0.,1.));
#344 = DIRECTION('',(1.,0.,-0.));
#345 = DEFINITIONAL_REPRESENTATION('',(#346),#350);
#346 = LINE('',#347,#348);
#347 = CARTESIAN_POINT('',(0.,5.5));
#348 = VECTOR('',#349,1.);
#349 = DIRECTION('',(1.,0.));
#350 = ( GEOMETRIC_REPRESENTATION_CONTEXT(2) 
PARAMETRIC_REPRESENTATION_CONTEXT() REPRESENTATION_CONTEXT('2D SPACE',''
  ) );
#351 = ADVANCED_FACE('',(#352),#100,.T.);
#352 = FACE_BOUND('',#353,.T.);
#353 = EDGE_LOOP('',(#354,#377,#378,#379));
#354 = ORIENTED_EDGE('',*,*,#355,.F.);
#355 = EDGE_CURVE('',#57,#356,#358,.T.);
#356 = VERTEX_POINT('',#357);
#357 = CARTESIAN_POINT('',(43.,12.,-91.));
#358 = SURFACE_CURVE('',#359,(#363,#370),.PCURVE_S1.);
#359 = LINE('',#360,#361);
#360 = CARTESIAN_POINT('',(17.,12.,-91.));
#361 = VECTOR('',#362,1.);
#362 = DIRECTION('',(1.,0.,-0.));
#363 = PCURVE('',#100,#364);
#364 = DEFINITIONAL_REPRESENTATION('',(#365),#369);
#365 = LINE('',#366,#367);
#366 = CARTESIAN_POINT('',(0.,0.));
#367 = VECTOR('',#368,1.);
#368 = DIRECTION('',(0.,1.));
#369 = ( GEOMETRIC_REPRESENTATION_CONTEXT(2) 
PARAMETRIC_REPRESENTATION_CONTEXT() REPRESENTATION_CONTEXT('2D SPACE',''
  ) );
#370 = PCURVE('',#72,#371);
#371 = DEFINITIONAL_REPRESENTATION('',(#372),#376);
#372 = LINE('',#373,#374);
#373 = CARTESIAN_POINT('',(0.,24.));
#374 = VECTOR('',#375,1.);
#375 = DIRECTION('',(1.,0.));
#376 = ( GEOMETRIC_REPRESENTATION_CONTEXT(2) 
PARAMETRIC_REPRESENTATION_CONTEXT() REPRESENTATION_CONTEXT('2D SPACE',''
  ) );
#377 = ORIENTED_EDGE('',*,*,#84,.T.);
#378 = ORIENTED_EDGE('',*,*,#242,.T.);
#379 = ORIENTED_EDGE('',*,*,#380,.F.);
#380 = EDGE_CURVE('',#356,#220,#381,.T.);
#381 = SURFACE_CURVE('',#382,(#386,#393),.PCURVE_S1.);
#382 = LINE('',#383,#384);
#383 = CARTESIAN_POINT('',(43.,12.,-91.));
#384 = VECTOR('',#385,1.);
#385 = DIRECTION('',(0.,0.,1.));
#386 = PCURVE('',#100,#387);
#387 = DEFINITIONAL_REPRESENTATION('',(#388),#392);
#388 = LINE('',#389,#390);
#389 = CARTESIAN_POINT('',(0.,26.));
#390 = VECTOR('',#391,1.);
#391 = DIRECTION('',(1.,0.));
#392 = ( GEOMETRIC_REPRESENTATION_CONTEXT(2) 
PARAMETRIC_REPRESENTATION_CONTEXT() REPRESENTATION_CONTEXT('2D SPACE',''
  ) );
#393 = PCURVE('',#202,#394);
#394 = DEFINITIONAL_REPRESENTATION('',(#395),#399);
#395 = LINE('',#396,#397);
#396 = CARTESIAN_POINT('',(0.,-24.));
#397 = VECTOR('',#398,1.);
#398 = DIRECTION('',(1.,0.));
#399 = ( GEOMETRIC_REPRESENTATION_CONTEXT(2) 
PARAMETRIC_REPRESENTATION_CONTEXT() REPRESENTATION_CONTEXT('2D SPACE',''
  ) );
#400 = ADVANCED_FACE('',(#401),#72,.F.);
#401 = FACE_BOUND('',#402,.F.);
#402 = EDGE_LOOP('',(#403,#404,#405,#426));
#403 = ORIENTED_EDGE('',*,*,#56,.F.);
#404 = ORIENTED_EDGE('',*,*,#141,.T.);
#405 = ORIENTED_EDGE('',*,*,#406,.T.);
#406 = EDGE_CURVE('',#142,#356,#407,.T.);
#407 = SURFACE_CURVE('',#408,(#412,#419),.PCURVE_S1.);
#408 = LINE('',#409,#410);
#409 = CARTESIAN_POINT('',(43.,-12.,-91.));
#410 = VECTOR('',#411,1.);
#411 = DIRECTION('',(-0.,1.,0.));
#412 = PCURVE('',#72,#413);
#413 = DEFINITIONAL_REPRESENTATION('',(#414),#418);
#414 = LINE('',#415,#416);
#415 = CARTESIAN_POINT('',(26.,0.));
#416 = VECTOR('',#417,1.);
#417 = DIRECTION('',(0.,1.));
#418 = ( GEOMETRIC_REPRESENTATION_CONTEXT(2) 
PARAMETRIC_REPRESENTATION_CONTEXT() REPRESENTATION_CONTEXT('2D SPACE',''
  ) );
#419 = PCURVE('',#202,#420);
#420 = DEFINITIONAL_REPRESENTATION('',(#421),#425);
#421 = LINE('',#422,#423);
#422 = CARTESIAN_POINT('',(0.,0.));
#423 = VECTOR('',#424,1.);
#424 = DIRECTION('',(0.,-1.));
#425 = ( GEOMETRIC_REPRESENTATION_CONTEXT(2) 
PARAMETRIC_REPRESENTATION_CONTEXT() REPRESENTATION_CONTEXT('2D SPACE',''
  ) );
#426 = ORIENTED_EDGE('',*,*,#355,.F.);
#427 = ADVANCED_FACE('',(#428,#434),#202,.T.);
#428 = FACE_BOUND('',#429,.T.);
#429 = EDGE_LOOP('',(#430,#431,#432,#433));
#430 = ORIENTED_EDGE('',*,*,#188,.F.);
#431 = ORIENTED_EDGE('',*,*,#406,.T.);
#432 = ORIENTED_EDGE('',*,*,#380,.T.);
#433 = ORIENTED_EDGE('',*,*,#219,.F.);
#434 = FACE_BOUND('',#435,.T.);
#435 = EDGE_LOOP('',(#436));
#436 = ORIENTED_EDGE('',*,*,#437,.F.);
#437 = EDGE_CURVE('',#438,#438,#440,.T.);
#438 = VERTEX_POINT('',#439);
#439 = CARTESIAN_POINT('',(43.,1.420590287011E-15,-69.2));
#440 = SURFACE_CURVE('',#441,(#446,#453),.PCURVE_S1.);
#441 = CIRCLE('',#442,5.8);
#442 = AXIS2_PLACEMENT_3D('',#443,#444,#445);
#443 = CARTESIAN_POINT('',(43.,0.,-75.));
#444 = DIRECTION('',(1.,0.,0.));
#445 = DIRECTION('',(-0.,0.,1.));
#446 = PCURVE('',#202,#447);
#447 = DEFINITIONAL_REPRESENTATION('',(#448),#452);
#448 = CIRCLE('',#449,5.8);
#449 = AXIS2_PLACEMENT_2D('',#450,#451);
#450 = CARTESIAN_POINT('',(16.,-12.));
#451 = DIRECTION('',(1.,0.));
#452 = ( GEOMETRIC_REPRESENTATION_CONTEXT(2) 
PARAMETRIC_REPRESENTATION_CONTEXT() REPRESENTATION_CONTEXT('2D SPACE',''
  ) );
#453 = PCURVE('',#454,#459);
#454 = CYLINDRICAL_SURFACE('',#455,5.8);
#455 = AXIS2_PLACEMENT_3D('',#456,#457,#458);
#456 = CARTESIAN_POINT('',(25.5,0.,-75.));
#457 = DIRECTION('',(1.,0.,0.));
#458 = DIRECTION('',(-0.,0.,1.));
#459 = DEFINITIONAL_REPRESENTATION('',(#460),#464);
#460 = LINE('',#461,#462);
#461 = CARTESIAN_POINT('',(0.,17.5));
#462 = VECTOR('',#463,1.);
#463 = DIRECTION('',(1.,0.));
#464 = ( GEOMETRIC_REPRESENTATION_CONTEXT(2) 
PARAMETRIC_REPRESENTATION_CONTEXT() REPRESENTATION_CONTEXT('2D SPACE',''
  ) );
#465 = ADVANCED_FACE('',(#466),#284,.F.);
#466 = FACE_BOUND('',#467,.F.);
#467 = EDGE_LOOP('',(#468,#469,#490,#519));
#468 = ORIENTED_EDGE('',*,*,#265,.F.);
#469 = ORIENTED_EDGE('',*,*,#470,.F.);
#470 = EDGE_CURVE('',#471,#266,#473,.T.);
#471 = VERTEX_POINT('',#472);
#472 = CARTESIAN_POINT('',(26.,2.56173769149,-64.5));
#473 = SURFACE_CURVE('',#474,(#478,#484),.PCURVE_S1.);
#474 = LINE('',#475,#476);
#475 = CARTESIAN_POINT('',(26.,2.56173769149,-64.5));
#476 = VECTOR('',#477,1.);
#477 = DIRECTION('',(0.,0.,1.));
#478 = PCURVE('',#284,#479);
#479 = DEFINITIONAL_REPRESENTATION('',(#480),#483);
#480 = B_SPLINE_CURVE_WITH_KNOTS('',1,(#481,#482),.UNSPECIFIED.,.F.,.F.,
  (2,2),(-6.000000070117E-07,5.5000006),.PIECEWISE_BEZIER_KNOTS.);
#481 = CARTESIAN_POINT('',(0.569621319073,-6.000000070117E-07));
#482 = CARTESIAN_POINT('',(0.569621319073,5.5000006));
#483 = ( GEOMETRIC_REPRESENTATION_CONTEXT(2) 
PARAMETRIC_REPRESENTATION_CONTEXT() REPRESENTATION_CONTEXT('2D SPACE',''
  ) );
#484 = PCURVE('',#313,#485);
#485 = DEFINITIONAL_REPRESENTATION('',(#486),#489);
#486 = B_SPLINE_CURVE_WITH_KNOTS('',1,(#487,#488),.UNSPECIFIED.,.F.,.F.,
  (2,2),(-6.000000070117E-07,5.5000006),.PIECEWISE_BEZIER_KNOTS.);
#487 = CARTESIAN_POINT('',(2.571971334517,-6.000000070117E-07));
#488 = CARTESIAN_POINT('',(2.571971334517,5.5000006));
#489 = ( GEOMETRIC_REPRESENTATION_CONTEXT(2) 
PARAMETRIC_REPRESENTATION_CONTEXT() REPRESENTATION_CONTEXT('2D SPACE',''
  ) );
#490 = ORIENTED_EDGE('',*,*,#491,.T.);
#491 = EDGE_CURVE('',#471,#492,#494,.T.);
#492 = VERTEX_POINT('',#493);
#493 = CARTESIAN_POINT('',(26.,-2.56173769149,-64.5));
#494 = SURFACE_CURVE('',#495,(#500,#507),.PCURVE_S1.);
#495 = CIRCLE('',#496,4.75);
#496 = AXIS2_PLACEMENT_3D('',#497,#498,#499);
#497 = CARTESIAN_POINT('',(22.,0.,-64.5));
#498 = DIRECTION('',(0.,0.,1.));
#499 = DIRECTION('',(1.,0.,-0.));
#500 = PCURVE('',#284,#501);
#501 = DEFINITIONAL_REPRESENTATION('',(#502),#506);
#502 = LINE('',#503,#504);
#503 = CARTESIAN_POINT('',(0.,0.));
#504 = VECTOR('',#505,1.);
#505 = DIRECTION('',(1.,0.));
#506 = ( GEOMETRIC_REPRESENTATION_CONTEXT(2) 
PARAMETRIC_REPRESENTATION_CONTEXT() REPRESENTATION_CONTEXT('2D SPACE',''
  ) );
#507 = PCURVE('',#508,#513);
#508 = PLANE('',#509);
#509 = AXIS2_PLACEMENT_3D('',#510,#511,#512);
#510 = CARTESIAN_POINT('',(22.,0.,-64.5));
#511 = DIRECTION('',(0.,0.,1.));
#512 = DIRECTION('',(1.,0.,-0.));
#513 = DEFINITIONAL_REPRESENTATION('',(#514),#518);
#514 = CIRCLE('',#515,4.75);
#515 = AXIS2_PLACEMENT_2D('',#516,#517);
#516 = CARTESIAN_POINT('',(0.,0.));
#517 = DIRECTION('',(1.,0.));
#518 = ( GEOMETRIC_REPRESENTATION_CONTEXT(2) 
PARAMETRIC_REPRESENTATION_CONTEXT() REPRESENTATION_CONTEXT('2D SPACE',''
  ) );
#519 = ORIENTED_EDGE('',*,*,#520,.T.);
#520 = EDGE_CURVE('',#492,#268,#521,.T.);
#521 = SURFACE_CURVE('',#522,(#526,#532),.PCURVE_S1.);
#522 = LINE('',#523,#524);
#523 = CARTESIAN_POINT('',(26.,-2.56173769149,-64.5));
#524 = VECTOR('',#525,1.);
#525 = DIRECTION('',(0.,0.,1.));
#526 = PCURVE('',#284,#527);
#527 = DEFINITIONAL_REPRESENTATION('',(#528),#531);
#528 = B_SPLINE_CURVE_WITH_KNOTS('',1,(#529,#530),.UNSPECIFIED.,.F.,.F.,
  (2,2),(-6.000000070117E-07,5.5000006),.PIECEWISE_BEZIER_KNOTS.);
#529 = CARTESIAN_POINT('',(5.713563988107,-6.000000070117E-07));
#530 = CARTESIAN_POINT('',(5.713563988107,5.5000006));
#531 = ( GEOMETRIC_REPRESENTATION_CONTEXT(2) 
PARAMETRIC_REPRESENTATION_CONTEXT() REPRESENTATION_CONTEXT('2D SPACE',''
  ) );
#532 = PCURVE('',#340,#533);
#533 = DEFINITIONAL_REPRESENTATION('',(#534),#537);
#534 = B_SPLINE_CURVE_WITH_KNOTS('',1,(#535,#536),.UNSPECIFIED.,.F.,.F.,
  (2,2),(-6.000000070117E-07,5.5000006),.PIECEWISE_BEZIER_KNOTS.);
#535 = CARTESIAN_POINT('',(3.711213972663,-6.000000070117E-07));
#536 = CARTESIAN_POINT('',(3.711213972663,5.5000006));
#537 = ( GEOMETRIC_REPRESENTATION_CONTEXT(2) 
PARAMETRIC_REPRESENTATION_CONTEXT() REPRESENTATION_CONTEXT('2D SPACE',''
  ) );
#538 = ADVANCED_FACE('',(#539),#340,.F.);
#539 = FACE_BOUND('',#540,.F.);
#540 = EDGE_LOOP('',(#541,#564,#565,#566));
#541 = ORIENTED_EDGE('',*,*,#542,.T.);
#542 = EDGE_CURVE('',#543,#297,#545,.T.);
#543 = VERTEX_POINT('',#544);
#544 = CARTESIAN_POINT('',(34.75,-1.16341445919E-15,-64.5));
#545 = SURFACE_CURVE('',#546,(#550,#557),.PCURVE_S1.);
#546 = LINE('',#547,#548);
#547 = CARTESIAN_POINT('',(34.75,-1.16341445919E-15,-64.5));
#548 = VECTOR('',#549,1.);
#549 = DIRECTION('',(0.,0.,1.));
#550 = PCURVE('',#340,#551);
#551 = DEFINITIONAL_REPRESENTATION('',(#552),#556);
#552 = LINE('',#553,#554);
#553 = CARTESIAN_POINT('',(6.28318530718,-0.));
#554 = VECTOR('',#555,1.);
#555 = DIRECTION('',(0.,1.));
#556 = ( GEOMETRIC_REPRESENTATION_CONTEXT(2) 
PARAMETRIC_REPRESENTATION_CONTEXT() REPRESENTATION_CONTEXT('2D SPACE',''
  ) );
#557 = PCURVE('',#313,#558);
#558 = DEFINITIONAL_REPRESENTATION('',(#559),#563);
#559 = LINE('',#560,#561);
#560 = CARTESIAN_POINT('',(0.,-0.));
#561 = VECTOR('',#562,1.);
#562 = DIRECTION('',(0.,1.));
#563 = ( GEOMETRIC_REPRESENTATION_CONTEXT(2) 
PARAMETRIC_REPRESENTATION_CONTEXT() REPRESENTATION_CONTEXT('2D SPACE',''
  ) );
#564 = ORIENTED_EDGE('',*,*,#325,.F.);
#565 = ORIENTED_EDGE('',*,*,#520,.F.);
#566 = ORIENTED_EDGE('',*,*,#567,.T.);
#567 = EDGE_CURVE('',#492,#543,#568,.T.);
#568 = SURFACE_CURVE('',#569,(#574,#581),.PCURVE_S1.);
#569 = CIRCLE('',#570,4.75);
#570 = AXIS2_PLACEMENT_3D('',#571,#572,#573);
#571 = CARTESIAN_POINT('',(30.,0.,-64.5));
#572 = DIRECTION('',(0.,0.,1.));
#573 = DIRECTION('',(1.,0.,-0.));
#574 = PCURVE('',#340,#575);
#575 = DEFINITIONAL_REPRESENTATION('',(#576),#580);
#576 = LINE('',#577,#578);
#577 = CARTESIAN_POINT('',(0.,0.));
#578 = VECTOR('',#579,1.);
#579 = DIRECTION('',(1.,0.));
#580 = ( GEOMETRIC_REPRESENTATION_CONTEXT(2) 
PARAMETRIC_REPRESENTATION_CONTEXT() REPRESENTATION_CONTEXT('2D SPACE',''
  ) );
#581 = PCURVE('',#582,#587);
#582 = PLANE('',#583);
#583 = AXIS2_PLACEMENT_3D('',#584,#585,#586);
#584 = CARTESIAN_POINT('',(30.,0.,-64.5));
#585 = DIRECTION('',(0.,0.,1.));
#586 = DIRECTION('',(1.,0.,-0.));
#587 = DEFINITIONAL_REPRESENTATION('',(#588),#592);
#588 = CIRCLE('',#589,4.75);
#589 = AXIS2_PLACEMENT_2D('',#590,#591);
#590 = CARTESIAN_POINT('',(0.,0.));
#591 = DIRECTION('',(1.,0.));
#592 = ( GEOMETRIC_REPRESENTATION_CONTEXT(2) 
PARAMETRIC_REPRESENTATION_CONTEXT() REPRESENTATION_CONTEXT('2D SPACE',''
  ) );
#593 = ADVANCED_FACE('',(#594),#313,.F.);
#594 = FACE_BOUND('',#595,.F.);
#595 = EDGE_LOOP('',(#596,#597,#598,#620));
#596 = ORIENTED_EDGE('',*,*,#296,.F.);
#597 = ORIENTED_EDGE('',*,*,#542,.F.);
#598 = ORIENTED_EDGE('',*,*,#599,.T.);
#599 = EDGE_CURVE('',#543,#471,#600,.T.);
#600 = SURFACE_CURVE('',#601,(#606,#613),.PCURVE_S1.);
#601 = CIRCLE('',#602,4.75);
#602 = AXIS2_PLACEMENT_3D('',#603,#604,#605);
#603 = CARTESIAN_POINT('',(30.,0.,-64.5));
#604 = DIRECTION('',(0.,0.,1.));
#605 = DIRECTION('',(1.,0.,-0.));
#606 = PCURVE('',#313,#607);
#607 = DEFINITIONAL_REPRESENTATION('',(#608),#612);
#608 = LINE('',#609,#610);
#609 = CARTESIAN_POINT('',(0.,0.));
#610 = VECTOR('',#611,1.);
#611 = DIRECTION('',(1.,0.));
#612 = ( GEOMETRIC_REPRESENTATION_CONTEXT(2) 
PARAMETRIC_REPRESENTATION_CONTEXT() REPRESENTATION_CONTEXT('2D SPACE',''
  ) );
#613 = PCURVE('',#582,#614);
#614 = DEFINITIONAL_REPRESENTATION('',(#615),#619);
#615 = CIRCLE('',#616,4.75);
#616 = AXIS2_PLACEMENT_2D('',#617,#618);
#617 = CARTESIAN_POINT('',(0.,0.));
#618 = DIRECTION('',(1.,0.));
#619 = ( GEOMETRIC_REPRESENTATION_CONTEXT(2) 
PARAMETRIC_REPRESENTATION_CONTEXT() REPRESENTATION_CONTEXT('2D SPACE',''
  ) );
#620 = ORIENTED_EDGE('',*,*,#470,.T.);
#621 = ADVANCED_FACE('',(#622),#454,.F.);
#622 = FACE_BOUND('',#623,.F.);
#623 = EDGE_LOOP('',(#624,#625,#648,#838,#861,#888,#889,#1072));
#624 = ORIENTED_EDGE('',*,*,#437,.F.);
#625 = ORIENTED_EDGE('',*,*,#626,.F.);
#626 = EDGE_CURVE('',#627,#438,#629,.T.);
#627 = VERTEX_POINT('',#628);
#628 = CARTESIAN_POINT('',(32.75,3.735172737399E-16,-69.2));
#629 = SEAM_CURVE('',#630,(#634,#641),.PCURVE_S1.);
#630 = LINE('',#631,#632);
#631 = CARTESIAN_POINT('',(25.5,1.420590287011E-15,-69.2));
#632 = VECTOR('',#633,1.);
#633 = DIRECTION('',(1.,0.,0.));
#634 = PCURVE('',#454,#635);
#635 = DEFINITIONAL_REPRESENTATION('',(#636),#640);
#636 = LINE('',#637,#638);
#637 = CARTESIAN_POINT('',(6.28318530718,-0.));
#638 = VECTOR('',#639,1.);
#639 = DIRECTION('',(0.,1.));
#640 = ( GEOMETRIC_REPRESENTATION_CONTEXT(2) 
PARAMETRIC_REPRESENTATION_CONTEXT() REPRESENTATION_CONTEXT('2D SPACE',''
  ) );
#641 = PCURVE('',#454,#642);
#642 = DEFINITIONAL_REPRESENTATION('',(#643),#647);
#643 = LINE('',#644,#645);
#644 = CARTESIAN_POINT('',(0.,-0.));
#645 = VECTOR('',#646,1.);
#646 = DIRECTION('',(0.,1.));
#647 = ( GEOMETRIC_REPRESENTATION_CONTEXT(2) 
PARAMETRIC_REPRESENTATION_CONTEXT() REPRESENTATION_CONTEXT('2D SPACE',''
  ) );
#648 = ORIENTED_EDGE('',*,*,#649,.F.);
#649 = EDGE_CURVE('',#650,#627,#652,.T.);
#650 = VERTEX_POINT('',#651);
#651 = CARTESIAN_POINT('',(27.25,1.420590287011E-15,-69.2));
#652 = SURFACE_CURVE('',#653,(#711,#772),.PCURVE_S1.);
#653 = B_SPLINE_CURVE_WITH_KNOTS('',6,(#654,#655,#656,#657,#658,#659,
    #660,#661,#662,#663,#664,#665,#666,#667,#668,#669,#670,#671,#672,
    #673,#674,#675,#676,#677,#678,#679,#680,#681,#682,#683,#684,#685,
    #686,#687,#688,#689,#690,#691,#692,#693,#694,#695,#696,#697,#698,
    #699,#700,#701,#702,#703,#704,#705,#706,#707,#708,#709,#710),
  .UNSPECIFIED.,.F.,.F.,(7,5,5,5,5,5,5,5,5,5,5,7),(0.,0.123067596734,
    0.178405427694,0.252150785049,0.348257965791,0.419349595403,
    0.499718365171,0.651555457527,0.747006438255,0.819923675261,
    0.923908801645,1.),.UNSPECIFIED.);
#654 = CARTESIAN_POINT('',(27.25,4.440892098501E-16,-69.2));
#655 = CARTESIAN_POINT('',(27.25,-0.215609901813,-69.2));
#656 = CARTESIAN_POINT('',(27.270285643808,-0.429438191356,
    -69.2096182203));
#657 = CARTESIAN_POINT('',(27.310227489201,-0.637982982979,
    -69.22855600326));
#658 = CARTESIAN_POINT('',(27.368134102616,-0.837862751129,
    -69.25559975219));
#659 = CARTESIAN_POINT('',(27.441262552477,-1.026039366725,
    -69.28870675495));
#660 = CARTESIAN_POINT('',(27.563590593394,-1.278268308463,
    -69.34204764812));
#661 = CARTESIAN_POINT('',(27.603979903698,-1.353986885361,
    -69.35941276906));
#662 = CARTESIAN_POINT('',(27.646618538188,-1.427173324935,
    -69.37744923383));
#663 = CARTESIAN_POINT('',(27.691323757068,-1.497822372725,
    -69.39601471311));
#664 = CARTESIAN_POINT('',(27.737925822363,-1.565937310811,
    -69.41497427408));
#665 = CARTESIAN_POINT('',(27.850689485216,-1.718940117641,
    -69.45982472847));
#666 = CARTESIAN_POINT('',(27.918214161427,-1.801888774887,
    -69.48592873951));
#667 = CARTESIAN_POINT('',(27.98851579833,-1.880456202994,
    -69.51223205479));
#668 = CARTESIAN_POINT('',(28.061316224484,-1.954725376731,
    -69.53848031538));
#669 = CARTESIAN_POINT('',(28.136384344036,-2.024780239206,
    -69.56444482852));
#670 = CARTESIAN_POINT('',(28.3140815983,-2.176618919454,-69.62312230941
    ));
#671 = CARTESIAN_POINT('',(28.418183362987,-2.255533309026,
    -69.6555000733));
#672 = CARTESIAN_POINT('',(28.525394664322,-2.327587707041,
    -69.68658611883));
#673 = CARTESIAN_POINT('',(28.63533949437,-2.392897385678,
    -69.71596427432));
#674 = CARTESIAN_POINT('',(28.747709967228,-2.451551009454,
    -69.74326829234));
#675 = CARTESIAN_POINT('',(28.94700125651,-2.54211661264,-69.78660709866
    ));
#676 = CARTESIAN_POINT('',(29.03292120662,-2.57700960785,-69.80372262328
    ));
#677 = CARTESIAN_POINT('',(29.119882080903,-2.608293209983,
    -69.81938838192));
#678 = CARTESIAN_POINT('',(29.207750570397,-2.635971583018,
    -69.83348353795));
#679 = CARTESIAN_POINT('',(29.296401747297,-2.660046239234,
    -69.84590582659));
#680 = CARTESIAN_POINT('',(29.486691393909,-2.703654039646,
    -69.86863218133));
#681 = CARTESIAN_POINT('',(29.588509829799,-2.722183364125,
    -69.87844772815));
#682 = CARTESIAN_POINT('',(29.690958438158,-2.736088783469,
    -69.8858950676));
#683 = CARTESIAN_POINT('',(29.793826403178,-2.745362321486,
    -69.89088924845));
#684 = CARTESIAN_POINT('',(29.896907533071,-2.75,-69.89338664083));
#685 = CARTESIAN_POINT('',(30.19476794864,-2.75,-69.89338664083));
#686 = CARTESIAN_POINT('',(30.389320806813,-2.733446883034,
    -69.88447251556));
#687 = CARTESIAN_POINT('',(30.582433280939,-2.700408236948,
    -69.86668056412));
#688 = CARTESIAN_POINT('',(30.772854213174,-2.650902654263,
    -69.84054018898));
#689 = CARTESIAN_POINT('',(30.959220993685,-2.584927449942,
    -69.80707393229));
#690 = CARTESIAN_POINT('',(31.253616938458,-2.450823676955,
    -69.74293278989));
#691 = CARTESIAN_POINT('',(31.365097791655,-2.392565766826,
    -69.71582328495));
#692 = CARTESIAN_POINT('',(31.474188267003,-2.327753695034,
    -69.68667373101));
#693 = CARTESIAN_POINT('',(31.58058740304,-2.256300819721,
    -69.65584207887));
#694 = CARTESIAN_POINT('',(31.683928240285,-2.178094698358,
    -69.62373466566));
#695 = CARTESIAN_POINT('',(31.860051599733,-2.0279920923,-69.56565490266
    ));
#696 = CARTESIAN_POINT('',(31.934298830279,-1.95895593924,
    -69.54002031353));
#697 = CARTESIAN_POINT('',(32.006340105516,-1.885809922903,
    -69.51410137374));
#698 = CARTESIAN_POINT('',(32.075953866656,-1.80847320753,-69.4881178841
    ));
#699 = CARTESIAN_POINT('',(32.142873898729,-1.726865690078,
    -69.46231399782));
#700 = CARTESIAN_POINT('',(32.297936193785,-1.518329004495,
    -69.40080271382));
#701 = CARTESIAN_POINT('',(32.383193498511,-1.386606028813,
    -69.36547240632));
#702 = CARTESIAN_POINT('',(32.461299195567,-1.24583625284,
    -69.33187807739));
#703 = CARTESIAN_POINT('',(32.530954009758,-1.096240732291,
    -69.30101956125));
#704 = CARTESIAN_POINT('',(32.590791629157,-0.938189806261,
    -69.27393324433));
#705 = CARTESIAN_POINT('',(32.674881463721,-0.650784237426,
    -69.23532355846));
#706 = CARTESIAN_POINT('',(32.704361424662,-0.525146327466,
    -69.22157989656));
#707 = CARTESIAN_POINT('',(32.727015895521,-0.396240871357,
    -69.21089764198));
#708 = CARTESIAN_POINT('',(32.742323556867,-0.26506032655,
    -69.20363969113));
#709 = CARTESIAN_POINT('',(32.75,-0.132634160179,-69.2));
#710 = CARTESIAN_POINT('',(32.75,-4.440892098501E-16,-69.2));
#711 = PCURVE('',#454,#712);
#712 = DEFINITIONAL_REPRESENTATION('',(#713),#771);
#713 = B_SPLINE_CURVE_WITH_KNOTS('',6,(#714,#715,#716,#717,#718,#719,
    #720,#721,#722,#723,#724,#725,#726,#727,#728,#729,#730,#731,#732,
    #733,#734,#735,#736,#737,#738,#739,#740,#741,#742,#743,#744,#745,
    #746,#747,#748,#749,#750,#751,#752,#753,#754,#755,#756,#757,#758,
    #759,#760,#761,#762,#763,#764,#765,#766,#767,#768,#769,#770),
  .UNSPECIFIED.,.F.,.F.,(7,5,5,5,5,5,5,5,5,5,5,7),(0.,0.123067596734,
    0.178405427694,0.252150785049,0.348257965791,0.419349595403,
    0.499718365171,0.651555457527,0.747006438255,0.819923675261,
    0.923908801645,1.),.UNSPECIFIED.);
#714 = CARTESIAN_POINT('',(0.,1.75));
#715 = CARTESIAN_POINT('',(3.717412100217E-02,1.75));
#716 = CARTESIAN_POINT('',(7.40411308694E-02,1.770285643808));
#717 = CARTESIAN_POINT('',(0.110089282267,1.810227489201));
#718 = CARTESIAN_POINT('',(0.144821957888,1.868134102616));
#719 = CARTESIAN_POINT('',(0.17774523674,1.941262552477));
#720 = CARTESIAN_POINT('',(0.222194799981,2.063590593394));
#721 = CARTESIAN_POINT('',(0.235586701737,2.103979903698));
#722 = CARTESIAN_POINT('',(0.248580142228,2.146618538188));
#723 = CARTESIAN_POINT('',(0.261172519311,2.191323757068));
#724 = CARTESIAN_POINT('',(0.273361791104,2.237925822363));
#725 = CARTESIAN_POINT('',(0.300851613108,2.350689485216));
#726 = CARTESIAN_POINT('',(0.31584165862,2.418214161427));
#727 = CARTESIAN_POINT('',(0.330123441909,2.48851579833));
#728 = CARTESIAN_POINT('',(0.343702200384,2.561316224484));
#729 = CARTESIAN_POINT('',(0.356582292946,2.636384344036));
#730 = CARTESIAN_POINT('',(0.384648182584,2.8140815983));
#731 = CARTESIAN_POINT('',(0.399351686713,2.918183362987));
#732 = CARTESIAN_POINT('',(0.412878823941,3.025394664322));
#733 = CARTESIAN_POINT('',(0.425224271461,3.13533949437));
#734 = CARTESIAN_POINT('',(0.436378353628,3.247709967228));
#735 = CARTESIAN_POINT('',(0.453688887881,3.44700125651));
#736 = CARTESIAN_POINT('',(0.460389378752,3.53292120662));
#737 = CARTESIAN_POINT('',(0.466421337897,3.619882080903));
#738 = CARTESIAN_POINT('',(0.471776508831,3.707750570397));
#739 = CARTESIAN_POINT('',(0.476447266978,3.796401747297));
#740 = CARTESIAN_POINT('',(0.484925622046,3.986691393909));
#741 = CARTESIAN_POINT('',(0.488540816408,4.088509829799));
#742 = CARTESIAN_POINT('',(0.491260471444,4.190958438158));
#743 = CARTESIAN_POINT('',(0.493076491966,4.293826403178));
#744 = CARTESIAN_POINT('',(0.493984650799,4.396907533071));
#745 = CARTESIAN_POINT('',(0.493984650799,4.69476794864));
#746 = CARTESIAN_POINT('',(0.490743161211,4.889320806813));
#747 = CARTESIAN_POINT('',(0.484273309241,5.082433280939));
#748 = CARTESIAN_POINT('',(0.47462152273,5.272854213174));
#749 = CARTESIAN_POINT('',(0.461870206542,5.459220993685));
#750 = CARTESIAN_POINT('',(0.436240266643,5.753616938458));
#751 = CARTESIAN_POINT('',(0.425162179925,5.865097791655));
#752 = CARTESIAN_POINT('',(0.412911111224,5.974188267003));
#753 = CARTESIAN_POINT('',(0.399496503411,6.08058740304));
#754 = CARTESIAN_POINT('',(0.384923580457,6.183928240285));
#755 = CARTESIAN_POINT('',(0.35717403642,6.360051599733));
#756 = CARTESIAN_POINT('',(0.344478352296,6.434298830279));
#757 = CARTESIAN_POINT('',(0.331100984868,6.506340105516));
#758 = CARTESIAN_POINT('',(0.317037763773,6.575953866656));
#759 = CARTESIAN_POINT('',(0.302283664827,6.642873898729));
#760 = CARTESIAN_POINT('',(0.264797564632,6.797936193785));
#761 = CARTESIAN_POINT('',(0.241291138126,6.883193498511));
#762 = CARTESIAN_POINT('',(0.216354304464,6.961299195567));
#763 = CARTESIAN_POINT('',(0.1900397067,7.030954009758));
#764 = CARTESIAN_POINT('',(0.16241044795,7.090791629157));
#765 = CARTESIAN_POINT('',(0.112412627296,7.174881463721));
#766 = CARTESIAN_POINT('',(9.062827675768E-02,7.204361424663));
#767 = CARTESIAN_POINT('',(6.833890006016E-02,7.227015895521));
#768 = CARTESIAN_POINT('',(4.570006065715E-02,7.242323556867));
#769 = CARTESIAN_POINT('',(2.286795865152E-02,7.25));
#770 = CARTESIAN_POINT('',(0.,7.25));
#771 = ( GEOMETRIC_REPRESENTATION_CONTEXT(2) 
PARAMETRIC_REPRESENTATION_CONTEXT() REPRESENTATION_CONTEXT('2D SPACE',''
  ) );
#772 = PCURVE('',#773,#778);
#773 = CYLINDRICAL_SURFACE('',#774,2.75);
#774 = AXIS2_PLACEMENT_3D('',#775,#776,#777);
#775 = CARTESIAN_POINT('',(30.,0.,-79.));
#776 = DIRECTION('',(0.,0.,1.));
#777 = DIRECTION('',(1.,0.,-0.));
#778 = DEFINITIONAL_REPRESENTATION('',(#779),#837);
#779 = B_SPLINE_CURVE_WITH_KNOTS('',6,(#780,#781,#782,#783,#784,#785,
    #786,#787,#788,#789,#790,#791,#792,#793,#794,#795,#796,#797,#798,
    #799,#800,#801,#802,#803,#804,#805,#806,#807,#808,#809,#810,#811,
    #812,#813,#814,#815,#816,#817,#818,#819,#820,#821,#822,#823,#824,
    #825,#826,#827,#828,#829,#830,#831,#832,#833,#834,#835,#836),
  .UNSPECIFIED.,.F.,.F.,(7,5,5,5,5,5,5,5,5,5,5,7),(0.,0.123067596734,
    0.178405427694,0.252150785049,0.348257965791,0.419349595403,
    0.499718365171,0.651555457527,0.747006438255,0.819923675261,
    0.923908801645,1.),.UNSPECIFIED.);
#780 = CARTESIAN_POINT('',(3.14159265359,9.8));
#781 = CARTESIAN_POINT('',(3.219996254249,9.8));
#782 = CARTESIAN_POINT('',(3.297751912627,9.790381779692));
#783 = CARTESIAN_POINT('',(3.374454355797,9.771443996734));
#784 = CARTESIAN_POINT('',(3.449667343812,9.744400247807));
#785 = CARTESIAN_POINT('',(3.522840413139,9.711293245049));
#786 = CARTESIAN_POINT('',(3.624777738654,9.657952351874));
#787 = CARTESIAN_POINT('',(3.655960948126,9.640587230931));
#788 = CARTESIAN_POINT('',(3.68672946932,9.622550766161));
#789 = CARTESIAN_POINT('',(3.717101732175,9.603985286889));
#790 = CARTESIAN_POINT('',(3.747094569482,9.585025725913));
#791 = CARTESIAN_POINT('',(3.816209878625,9.540175271524));
#792 = CARTESIAN_POINT('',(3.855058782998,9.51407126049));
#793 = CARTESIAN_POINT('',(3.893334994396,9.487767945201));
#794 = CARTESIAN_POINT('',(3.931096056238,9.461519684617));
#795 = CARTESIAN_POINT('',(3.968397945896,9.435555171472));
#796 = CARTESIAN_POINT('',(4.053391906978,9.376877690581));
#797 = CARTESIAN_POINT('',(4.100813277774,9.344499926698));
#798 = CARTESIAN_POINT('',(4.147673787707,9.313413881166));
#799 = CARTESIAN_POINT('',(4.19406970466,9.284035725676));
#800 = CARTESIAN_POINT('',(4.24009463614,9.256731707651));
#801 = CARTESIAN_POINT('',(4.319696244549,9.213392901333));
#802 = CARTESIAN_POINT('',(4.353389989115,9.196277376711));
#803 = CARTESIAN_POINT('',(4.386955119998,9.180611618074));
#804 = CARTESIAN_POINT('',(4.420414775174,9.166516462045));
#805 = CARTESIAN_POINT('',(4.453792546047,9.154094173408));
#806 = CARTESIAN_POINT('',(4.524782513784,9.131367818669));
#807 = CARTESIAN_POINT('',(4.562376957256,9.121552271845));
#808 = CARTESIAN_POINT('',(4.599915409118,9.114104932397));
#809 = CARTESIAN_POINT('',(4.637416758128,9.109110751542));
#810 = CARTESIAN_POINT('',(4.674900810592,9.106613359165));
#811 = CARTESIAN_POINT('',(4.783213688981,9.106613359165));
#812 = CARTESIAN_POINT('',(4.853960157523,9.115527484438));
#813 = CARTESIAN_POINT('',(4.924822465887,9.133319435874));
#814 = CARTESIAN_POINT('',(4.995977592774,9.15945981102));
#815 = CARTESIAN_POINT('',(5.067595376348,9.192926067701));
#816 = CARTESIAN_POINT('',(5.185232045859,9.257067210104));
#817 = CARTESIAN_POINT('',(5.230905172943,9.284176715048));
#818 = CARTESIAN_POINT('',(5.276943976722,9.313326268984));
#819 = CARTESIAN_POINT('',(5.323439960114,9.344157921123));
#820 = CARTESIAN_POINT('',(5.370487202035,9.376265334339));
#821 = CARTESIAN_POINT('',(5.454636011655,9.434345097333));
#822 = CARTESIAN_POINT('',(5.491468298197,9.459979686465));
#823 = CARTESIAN_POINT('',(5.528746683174,9.485898626259));
#824 = CARTESIAN_POINT('',(5.566525132149,9.511882115897));
#825 = CARTESIAN_POINT('',(5.604859073906,9.537686002176));
#826 = CARTESIAN_POINT('',(5.699356869294,9.599197286171));
#827 = CARTESIAN_POINT('',(5.756293278688,9.634527593675));
#828 = CARTESIAN_POINT('',(5.814627691371,9.668121922609));
#829 = CARTESIAN_POINT('',(5.87439616324,9.698980438746));
#830 = CARTESIAN_POINT('',(5.935667336269,9.726066755665));
#831 = CARTESIAN_POINT('',(6.044559920402,9.764676441538));
#832 = CARTESIAN_POINT('',(6.091418436585,9.778420103434));
#833 = CARTESIAN_POINT('',(6.138895748316,9.789102358015));
#834 = CARTESIAN_POINT('',(6.186799738803,9.796360308869));
#835 = CARTESIAN_POINT('',(6.234954703478,9.8));
#836 = CARTESIAN_POINT('',(6.28318530718,9.8));
#837 = ( GEOMETRIC_REPRESENTATION_CONTEXT(2) 
PARAMETRIC_REPRESENTATION_CONTEXT() REPRESENTATION_CONTEXT('2D SPACE',''
  ) );
#838 = ORIENTED_EDGE('',*,*,#839,.F.);
#839 = EDGE_CURVE('',#840,#650,#842,.T.);
#840 = VERTEX_POINT('',#841);
#841 = CARTESIAN_POINT('',(25.5,1.420590287011E-15,-69.2));
#842 = SEAM_CURVE('',#843,(#847,#854),.PCURVE_S1.);
#843 = LINE('',#844,#845);
#844 = CARTESIAN_POINT('',(25.5,1.420590287011E-15,-69.2));
#845 = VECTOR('',#846,1.);
#846 = DIRECTION('',(1.,0.,0.));
#847 = PCURVE('',#454,#848);
#848 = DEFINITIONAL_REPRESENTATION('',(#849),#853);
#849 = LINE('',#850,#851);
#850 = CARTESIAN_POINT('',(6.28318530718,-0.));
#851 = VECTOR('',#852,1.);
#852 = DIRECTION('',(0.,1.));
#853 = ( GEOMETRIC_REPRESENTATION_CONTEXT(2) 
PARAMETRIC_REPRESENTATION_CONTEXT() REPRESENTATION_CONTEXT('2D SPACE',''
  ) );
#854 = PCURVE('',#454,#855);
#855 = DEFINITIONAL_REPRESENTATION('',(#856),#860);
#856 = LINE('',#857,#858);
#857 = CARTESIAN_POINT('',(0.,-0.));
#858 = VECTOR('',#859,1.);
#859 = DIRECTION('',(0.,1.));
#860 = ( GEOMETRIC_REPRESENTATION_CONTEXT(2) 
PARAMETRIC_REPRESENTATION_CONTEXT() REPRESENTATION_CONTEXT('2D SPACE',''
  ) );
#861 = ORIENTED_EDGE('',*,*,#862,.T.);
#862 = EDGE_CURVE('',#840,#840,#863,.T.);
#863 = SURFACE_CURVE('',#864,(#869,#876),.PCURVE_S1.);
#864 = CIRCLE('',#865,5.8);
#865 = AXIS2_PLACEMENT_3D('',#866,#867,#868);
#866 = CARTESIAN_POINT('',(25.5,0.,-75.));
#867 = DIRECTION('',(1.,0.,0.));
#868 = DIRECTION('',(-0.,0.,1.));
#869 = PCURVE('',#454,#870);
#870 = DEFINITIONAL_REPRESENTATION('',(#871),#875);
#871 = LINE('',#872,#873);
#872 = CARTESIAN_POINT('',(0.,0.));
#873 = VECTOR('',#874,1.);
#874 = DIRECTION('',(1.,0.));
#875 = ( GEOMETRIC_REPRESENTATION_CONTEXT(2) 
PARAMETRIC_REPRESENTATION_CONTEXT() REPRESENTATION_CONTEXT('2D SPACE',''
  ) );
#876 = PCURVE('',#877,#882);
#877 = PLANE('',#878);
#878 = AXIS2_PLACEMENT_3D('',#879,#880,#881);
#879 = CARTESIAN_POINT('',(25.5,0.,-75.));
#880 = DIRECTION('',(1.,0.,0.));
#881 = DIRECTION('',(-0.,0.,1.));
#882 = DEFINITIONAL_REPRESENTATION('',(#883),#887);
#883 = CIRCLE('',#884,5.8);
#884 = AXIS2_PLACEMENT_2D('',#885,#886);
#885 = CARTESIAN_POINT('',(0.,0.));
#886 = DIRECTION('',(1.,0.));
#887 = ( GEOMETRIC_REPRESENTATION_CONTEXT(2) 
PARAMETRIC_REPRESENTATION_CONTEXT() REPRESENTATION_CONTEXT('2D SPACE',''
  ) );
#888 = ORIENTED_EDGE('',*,*,#839,.T.);
#889 = ORIENTED_EDGE('',*,*,#890,.F.);
#890 = EDGE_CURVE('',#627,#650,#891,.T.);
#891 = SURFACE_CURVE('',#892,(#950,#1011),.PCURVE_S1.);
#892 = B_SPLINE_CURVE_WITH_KNOTS('',6,(#893,#894,#895,#896,#897,#898,
    #899,#900,#901,#902,#903,#904,#905,#906,#907,#908,#909,#910,#911,
    #912,#913,#914,#915,#916,#917,#918,#919,#920,#921,#922,#923,#924,
    #925,#926,#927,#928,#929,#930,#931,#932,#933,#934,#935,#936,#937,
    #938,#939,#940,#941,#942,#943,#944,#945,#946,#947,#948,#949),
  .UNSPECIFIED.,.F.,.F.,(7,5,5,5,5,5,5,5,5,5,5,7),(0.,0.123067596744,
    0.178405427713,0.252150785086,0.34825796585,0.419349595479,
    0.499718365266,0.651555457658,0.747006438408,0.819923675431,
    0.923908801753,1.),.UNSPECIFIED.);
#893 = CARTESIAN_POINT('',(32.75,3.735172737399E-16,-69.2));
#894 = CARTESIAN_POINT('',(32.75,0.215609901813,-69.2));
#895 = CARTESIAN_POINT('',(32.729714356192,0.429438191356,-69.2096182203
    ));
#896 = CARTESIAN_POINT('',(32.6897725108,0.637982982979,-69.22855600326)
  );
#897 = CARTESIAN_POINT('',(32.631865897384,0.837862751129,
    -69.25559975219));
#898 = CARTESIAN_POINT('',(32.558737447523,1.026039366725,
    -69.28870675495));
#899 = CARTESIAN_POINT('',(32.436409406603,1.278268308469,
    -69.34204764812));
#900 = CARTESIAN_POINT('',(32.396020096302,1.353986885359,
    -69.35941276906));
#901 = CARTESIAN_POINT('',(32.353381461815,1.42717332493,-69.37744923383
    ));
#902 = CARTESIAN_POINT('',(32.308676242934,1.497822372724,
    -69.39601471311));
#903 = CARTESIAN_POINT('',(32.262074177633,1.565937310816,
    -69.41497427408));
#904 = CARTESIAN_POINT('',(32.149310514784,1.718940117641,
    -69.45982472847));
#905 = CARTESIAN_POINT('',(32.081785838573,1.801888774887,
    -69.48592873951));
#906 = CARTESIAN_POINT('',(32.01148420167,1.880456202994,-69.51223205479
    ));
#907 = CARTESIAN_POINT('',(31.938683775516,1.954725376731,
    -69.53848031538));
#908 = CARTESIAN_POINT('',(31.863615655964,2.024780239206,
    -69.56444482852));
#909 = CARTESIAN_POINT('',(31.6859184017,2.176618919454,-69.62312230941)
  );
#910 = CARTESIAN_POINT('',(31.581816637013,2.255533309026,-69.6555000733
    ));
#911 = CARTESIAN_POINT('',(31.474605335678,2.327587707041,
    -69.68658611883));
#912 = CARTESIAN_POINT('',(31.36466050563,2.392897385678,-69.71596427432
    ));
#913 = CARTESIAN_POINT('',(31.252290032772,2.451551009454,
    -69.74326829234));
#914 = CARTESIAN_POINT('',(31.05299874349,2.54211661264,-69.78660709866)
  );
#915 = CARTESIAN_POINT('',(30.96707879338,2.57700960785,-69.80372262328)
  );
#916 = CARTESIAN_POINT('',(30.880117919097,2.608293209983,
    -69.81938838192));
#917 = CARTESIAN_POINT('',(30.792249429603,2.635971583018,
    -69.83348353795));
#918 = CARTESIAN_POINT('',(30.703598252703,2.660046239234,
    -69.84590582659));
#919 = CARTESIAN_POINT('',(30.513308606091,2.703654039646,
    -69.86863218133));
#920 = CARTESIAN_POINT('',(30.411490170201,2.722183364125,
    -69.87844772815));
#921 = CARTESIAN_POINT('',(30.309041561842,2.736088783469,-69.8858950676
    ));
#922 = CARTESIAN_POINT('',(30.206173596822,2.745362321486,
    -69.89088924845));
#923 = CARTESIAN_POINT('',(30.103092466929,2.75,-69.89338664083));
#924 = CARTESIAN_POINT('',(29.80523205136,2.75,-69.89338664083));
#925 = CARTESIAN_POINT('',(29.610679193187,2.733446883034,
    -69.88447251556));
#926 = CARTESIAN_POINT('',(29.417566719061,2.700408236948,
    -69.86668056412));
#927 = CARTESIAN_POINT('',(29.227145786826,2.650902654263,
    -69.84054018898));
#928 = CARTESIAN_POINT('',(29.040779006315,2.584927449942,
    -69.80707393229));
#929 = CARTESIAN_POINT('',(28.746383061542,2.450823676955,
    -69.74293278989));
#930 = CARTESIAN_POINT('',(28.634902208345,2.392565766826,
    -69.71582328495));
#931 = CARTESIAN_POINT('',(28.525811732997,2.327753695034,
    -69.68667373101));
#932 = CARTESIAN_POINT('',(28.41941259696,2.256300819721,-69.65584207887
    ));
#933 = CARTESIAN_POINT('',(28.316071759715,2.178094698358,
    -69.62373466566));
#934 = CARTESIAN_POINT('',(28.139948400267,2.0279920923,-69.56565490266)
  );
#935 = CARTESIAN_POINT('',(28.06570116972,1.95895593924,-69.54002031353)
  );
#936 = CARTESIAN_POINT('',(27.993659894484,1.885809922903,
    -69.51410137374));
#937 = CARTESIAN_POINT('',(27.924046133344,1.80847320753,-69.4881178841)
  );
#938 = CARTESIAN_POINT('',(27.857126101271,1.726865690078,
    -69.46231399782));
#939 = CARTESIAN_POINT('',(27.70206380629,1.518329004596,-69.40080271385
    ));
#940 = CARTESIAN_POINT('',(27.616806501445,1.38660602878,-69.3654724063)
  );
#941 = CARTESIAN_POINT('',(27.538700804377,1.245836252728,
    -69.33187807736));
#942 = CARTESIAN_POINT('',(27.469045990259,1.096240732269,
    -69.30101956125));
#943 = CARTESIAN_POINT('',(27.409208370883,0.938189806399,
    -69.27393324435));
#944 = CARTESIAN_POINT('',(27.325118536279,0.650784237426,
    -69.23532355846));
#945 = CARTESIAN_POINT('',(27.295638575337,0.525146327466,
    -69.22157989656));
#946 = CARTESIAN_POINT('',(27.272984104479,0.396240871357,
    -69.21089764198));
#947 = CARTESIAN_POINT('',(27.257676443133,0.26506032655,-69.20363969113
    ));
#948 = CARTESIAN_POINT('',(27.25,0.132634160179,-69.2));
#949 = CARTESIAN_POINT('',(27.25,1.215461948154E-15,-69.2));
#950 = PCURVE('',#454,#951);
#951 = DEFINITIONAL_REPRESENTATION('',(#952),#1010);
#952 = B_SPLINE_CURVE_WITH_KNOTS('',6,(#953,#954,#955,#956,#957,#958,
    #959,#960,#961,#962,#963,#964,#965,#966,#967,#968,#969,#970,#971,
    #972,#973,#974,#975,#976,#977,#978,#979,#980,#981,#982,#983,#984,
    #985,#986,#987,#988,#989,#990,#991,#992,#993,#994,#995,#996,#997,
    #998,#999,#1000,#1001,#1002,#1003,#1004,#1005,#1006,#1007,#1008,
    #1009),.UNSPECIFIED.,.F.,.F.,(7,5,5,5,5,5,5,5,5,5,5,7),(0.,
    0.123067596744,0.178405427713,0.252150785086,0.34825796585,
    0.419349595479,0.499718365266,0.651555457658,0.747006438408,
    0.819923675431,0.923908801753,1.),.UNSPECIFIED.);
#953 = CARTESIAN_POINT('',(6.28318530718,7.25));
#954 = CARTESIAN_POINT('',(6.246011186177,7.25));
#955 = CARTESIAN_POINT('',(6.20914417631,7.229714356192));
#956 = CARTESIAN_POINT('',(6.173096024912,7.189772510799));
#957 = CARTESIAN_POINT('',(6.138363349291,7.131865897384));
#958 = CARTESIAN_POINT('',(6.105440070439,7.058737447523));
#959 = CARTESIAN_POINT('',(6.060990507198,6.936409406603));
#960 = CARTESIAN_POINT('',(6.047598605443,6.896020096302));
#961 = CARTESIAN_POINT('',(6.034605164952,6.853381461815));
#962 = CARTESIAN_POINT('',(6.022012787869,6.808676242934));
#963 = CARTESIAN_POINT('',(6.009823516075,6.762074177633));
#964 = CARTESIAN_POINT('',(5.982333694072,6.649310514784));
#965 = CARTESIAN_POINT('',(5.967343648559,6.581785838573));
#966 = CARTESIAN_POINT('',(5.953061865271,6.51148420167));
#967 = CARTESIAN_POINT('',(5.939483106795,6.438683775516));
#968 = CARTESIAN_POINT('',(5.926603014234,6.363615655964));
#969 = CARTESIAN_POINT('',(5.898537124595,6.1859184017));
#970 = CARTESIAN_POINT('',(5.883833620466,6.081816637013));
#971 = CARTESIAN_POINT('',(5.870306483238,5.974605335678));
#972 = CARTESIAN_POINT('',(5.857961035719,5.86466050563));
#973 = CARTESIAN_POINT('',(5.846806953552,5.752290032772));
#974 = CARTESIAN_POINT('',(5.829496419299,5.55299874349));
#975 = CARTESIAN_POINT('',(5.822795928427,5.46707879338));
#976 = CARTESIAN_POINT('',(5.816763969283,5.380117919097));
#977 = CARTESIAN_POINT('',(5.811408798348,5.292249429603));
#978 = CARTESIAN_POINT('',(5.806738040202,5.203598252703));
#979 = CARTESIAN_POINT('',(5.798259685134,5.013308606091));
#980 = CARTESIAN_POINT('',(5.794644490772,4.911490170201));
#981 = CARTESIAN_POINT('',(5.791924835735,4.809041561842));
#982 = CARTESIAN_POINT('',(5.790108815214,4.706173596822));
#983 = CARTESIAN_POINT('',(5.789200656381,4.603092466929));
#984 = CARTESIAN_POINT('',(5.789200656381,4.305232051361));
#985 = CARTESIAN_POINT('',(5.792442145968,4.110679193187));
#986 = CARTESIAN_POINT('',(5.798911997939,3.917566719061));
#987 = CARTESIAN_POINT('',(5.80856378445,3.727145786826));
#988 = CARTESIAN_POINT('',(5.821315100638,3.540779006315));
#989 = CARTESIAN_POINT('',(5.846945040536,3.246383061542));
#990 = CARTESIAN_POINT('',(5.858023127255,3.134902208345));
#991 = CARTESIAN_POINT('',(5.870274195956,3.025811732997));
#992 = CARTESIAN_POINT('',(5.883688803768,2.91941259696));
#993 = CARTESIAN_POINT('',(5.898261726723,2.816071759715));
#994 = CARTESIAN_POINT('',(5.92601127076,2.639948400267));
#995 = CARTESIAN_POINT('',(5.938706954884,2.56570116972));
#996 = CARTESIAN_POINT('',(5.952084322311,2.493659894484));
#997 = CARTESIAN_POINT('',(5.966147543406,2.424046133344));
#998 = CARTESIAN_POINT('',(5.980901642353,2.357126101271));
#999 = CARTESIAN_POINT('',(6.01838774253,2.20206380629));
#1000 = CARTESIAN_POINT('',(6.041894169059,2.116806501445));
#1001 = CARTESIAN_POINT('',(6.066831002735,2.038700804377));
#1002 = CARTESIAN_POINT('',(6.093145600483,1.969045990259));
#1003 = CARTESIAN_POINT('',(6.120774859206,1.909208370883));
#1004 = CARTESIAN_POINT('',(6.170772679884,1.825118536279));
#1005 = CARTESIAN_POINT('',(6.192557030422,1.795638575337));
#1006 = CARTESIAN_POINT('',(6.214846407119,1.772984104479));
#1007 = CARTESIAN_POINT('',(6.237485246522,1.757676443133));
#1008 = CARTESIAN_POINT('',(6.260317348528,1.75));
#1009 = CARTESIAN_POINT('',(6.28318530718,1.75));
#1010 = ( GEOMETRIC_REPRESENTATION_CONTEXT(2) 
PARAMETRIC_REPRESENTATION_CONTEXT() REPRESENTATION_CONTEXT('2D SPACE',''
  ) );
#1011 = PCURVE('',#773,#1012);
#1012 = DEFINITIONAL_REPRESENTATION('',(#1013),#1071);
#1013 = B_SPLINE_CURVE_WITH_KNOTS('',6,(#1014,#1015,#1016,#1017,#1018,
    #1019,#1020,#1021,#1022,#1023,#1024,#1025,#1026,#1027,#1028,#1029,
    #1030,#1031,#1032,#1033,#1034,#1035,#1036,#1037,#1038,#1039,#1040,
    #1041,#1042,#1043,#1044,#1045,#1046,#1047,#1048,#1049,#1050,#1051,
    #1052,#1053,#1054,#1055,#1056,#1057,#1058,#1059,#1060,#1061,#1062,
    #1063,#1064,#1065,#1066,#1067,#1068,#1069,#1070),.UNSPECIFIED.,.F.,
  .F.,(7,5,5,5,5,5,5,5,5,5,5,7),(0.,0.123067596744,0.178405427713,
    0.252150785086,0.34825796585,0.419349595479,0.499718365266,
    0.651555457658,0.747006438408,0.819923675431,0.923908801753,1.),
  .UNSPECIFIED.);
#1014 = CARTESIAN_POINT('',(0.,9.8));
#1015 = CARTESIAN_POINT('',(7.840360065914E-02,9.8));
#1016 = CARTESIAN_POINT('',(0.156159259037,9.790381779692));
#1017 = CARTESIAN_POINT('',(0.232861702207,9.771443996734));
#1018 = CARTESIAN_POINT('',(0.308074690222,9.744400247807));
#1019 = CARTESIAN_POINT('',(0.381247759549,9.711293245049));
#1020 = CARTESIAN_POINT('',(0.483185085066,9.657952351873));
#1021 = CARTESIAN_POINT('',(0.514368294536,9.640587230931));
#1022 = CARTESIAN_POINT('',(0.545136815728,9.622550766162));
#1023 = CARTESIAN_POINT('',(0.575509078584,9.603985286889));
#1024 = CARTESIAN_POINT('',(0.605501915894,9.585025725912));
#1025 = CARTESIAN_POINT('',(0.674617225036,9.540175271524));
#1026 = CARTESIAN_POINT('',(0.713466129408,9.51407126049));
#1027 = CARTESIAN_POINT('',(0.751742340806,9.487767945201));
#1028 = CARTESIAN_POINT('',(0.789503402648,9.461519684617));
#1029 = CARTESIAN_POINT('',(0.826805292306,9.435555171472));
#1030 = CARTESIAN_POINT('',(0.911799253389,9.376877690581));
#1031 = CARTESIAN_POINT('',(0.959220624184,9.344499926698));
#1032 = CARTESIAN_POINT('',(1.006081134117,9.313413881166));
#1033 = CARTESIAN_POINT('',(1.05247705107,9.284035725676));
#1034 = CARTESIAN_POINT('',(1.09850198255,9.256731707651));
#1035 = CARTESIAN_POINT('',(1.178103590959,9.213392901333));
#1036 = CARTESIAN_POINT('',(1.211797335526,9.196277376711));
#1037 = CARTESIAN_POINT('',(1.245362466408,9.180611618074));
#1038 = CARTESIAN_POINT('',(1.278822121584,9.166516462045));
#1039 = CARTESIAN_POINT('',(1.312199892457,9.154094173408));
#1040 = CARTESIAN_POINT('',(1.383189860194,9.131367818669));
#1041 = CARTESIAN_POINT('',(1.420784303666,9.121552271845));
#1042 = CARTESIAN_POINT('',(1.458322755528,9.114104932397));
#1043 = CARTESIAN_POINT('',(1.495824104538,9.109110751542));
#1044 = CARTESIAN_POINT('',(1.533308157003,9.106613359165));
#1045 = CARTESIAN_POINT('',(1.641621035391,9.106613359165));
#1046 = CARTESIAN_POINT('',(1.712367503933,9.115527484438));
#1047 = CARTESIAN_POINT('',(1.783229812297,9.133319435874));
#1048 = CARTESIAN_POINT('',(1.854384939184,9.15945981102));
#1049 = CARTESIAN_POINT('',(1.926002722758,9.192926067701));
#1050 = CARTESIAN_POINT('',(2.043639392269,9.257067210104));
#1051 = CARTESIAN_POINT('',(2.089312519353,9.284176715048));
#1052 = CARTESIAN_POINT('',(2.135351323133,9.313326268984));
#1053 = CARTESIAN_POINT('',(2.181847306524,9.344157921123));
#1054 = CARTESIAN_POINT('',(2.228894548446,9.376265334339));
#1055 = CARTESIAN_POINT('',(2.313043358066,9.434345097333));
#1056 = CARTESIAN_POINT('',(2.349875644607,9.459979686465));
#1057 = CARTESIAN_POINT('',(2.387154029585,9.485898626259));
#1058 = CARTESIAN_POINT('',(2.42493247856,9.511882115897));
#1059 = CARTESIAN_POINT('',(2.463266420316,9.537686002176));
#1060 = CARTESIAN_POINT('',(2.557764215658,9.599197286141));
#1061 = CARTESIAN_POINT('',(2.614700625117,9.634527593691));
#1062 = CARTESIAN_POINT('',(2.673035037828,9.668121922632));
#1063 = CARTESIAN_POINT('',(2.732803509655,9.698980438741));
#1064 = CARTESIAN_POINT('',(2.794074682627,9.726066755646));
#1065 = CARTESIAN_POINT('',(2.902967266812,9.764676441538));
#1066 = CARTESIAN_POINT('',(2.949825782995,9.778420103434));
#1067 = CARTESIAN_POINT('',(2.997303094726,9.789102358015));
#1068 = CARTESIAN_POINT('',(3.045207085213,9.796360308869));
#1069 = CARTESIAN_POINT('',(3.093362049888,9.8));
#1070 = CARTESIAN_POINT('',(3.14159265359,9.8));
#1071 = ( GEOMETRIC_REPRESENTATION_CONTEXT(2) 
PARAMETRIC_REPRESENTATION_CONTEXT() REPRESENTATION_CONTEXT('2D SPACE',''
  ) );
#1072 = ORIENTED_EDGE('',*,*,#626,.T.);
#1073 = ADVANCED_FACE('',(#1074,#1104),#508,.T.);
#1074 = FACE_BOUND('',#1075,.T.);
#1075 = EDGE_LOOP('',(#1076,#1103));
#1076 = ORIENTED_EDGE('',*,*,#1077,.F.);
#1077 = EDGE_CURVE('',#471,#492,#1078,.T.);
#1078 = SURFACE_CURVE('',#1079,(#1084,#1091),.PCURVE_S1.);
#1079 = CIRCLE('',#1080,4.75);
#1080 = AXIS2_PLACEMENT_3D('',#1081,#1082,#1083);
#1081 = CARTESIAN_POINT('',(30.,0.,-64.5));
#1082 = DIRECTION('',(0.,0.,1.));
#1083 = DIRECTION('',(1.,0.,-0.));
#1084 = PCURVE('',#508,#1085);
#1085 = DEFINITIONAL_REPRESENTATION('',(#1086),#1090);
#1086 = CIRCLE('',#1087,4.75);
#1087 = AXIS2_PLACEMENT_2D('',#1088,#1089);
#1088 = CARTESIAN_POINT('',(8.,0.));
#1089 = DIRECTION('',(1.,0.));
#1090 = ( GEOMETRIC_REPRESENTATION_CONTEXT(2) 
PARAMETRIC_REPRESENTATION_CONTEXT() REPRESENTATION_CONTEXT('2D SPACE',''
  ) );
#1091 = PCURVE('',#1092,#1097);
#1092 = PLANE('',#1093);
#1093 = AXIS2_PLACEMENT_3D('',#1094,#1095,#1096);
#1094 = CARTESIAN_POINT('',(22.,0.,-64.5));
#1095 = DIRECTION('',(0.,0.,1.));
#1096 = DIRECTION('',(1.,0.,-0.));
#1097 = DEFINITIONAL_REPRESENTATION('',(#1098),#1102);
#1098 = CIRCLE('',#1099,4.75);
#1099 = AXIS2_PLACEMENT_2D('',#1100,#1101);
#1100 = CARTESIAN_POINT('',(8.,0.));
#1101 = DIRECTION('',(1.,0.));
#1102 = ( GEOMETRIC_REPRESENTATION_CONTEXT(2) 
PARAMETRIC_REPRESENTATION_CONTEXT() REPRESENTATION_CONTEXT('2D SPACE',''
  ) );
#1103 = ORIENTED_EDGE('',*,*,#491,.T.);
#1104 = FACE_BOUND('',#1105,.T.);
#1105 = EDGE_LOOP('',(#1106));
#1106 = ORIENTED_EDGE('',*,*,#1107,.F.);
#1107 = EDGE_CURVE('',#1108,#1108,#1110,.T.);
#1108 = VERTEX_POINT('',#1109);
#1109 = CARTESIAN_POINT('',(24.75,-6.73555739531E-16,-64.5));
#1110 = SURFACE_CURVE('',#1111,(#1116,#1123),.PCURVE_S1.);
#1111 = CIRCLE('',#1112,2.75);
#1112 = AXIS2_PLACEMENT_3D('',#1113,#1114,#1115);
#1113 = CARTESIAN_POINT('',(22.,0.,-64.5));
#1114 = DIRECTION('',(0.,0.,1.));
#1115 = DIRECTION('',(1.,0.,-0.));
#1116 = PCURVE('',#508,#1117);
#1117 = DEFINITIONAL_REPRESENTATION('',(#1118),#1122);
#1118 = CIRCLE('',#1119,2.75);
#1119 = AXIS2_PLACEMENT_2D('',#1120,#1121);
#1120 = CARTESIAN_POINT('',(0.,0.));
#1121 = DIRECTION('',(1.,0.));
#1122 = ( GEOMETRIC_REPRESENTATION_CONTEXT(2) 
PARAMETRIC_REPRESENTATION_CONTEXT() REPRESENTATION_CONTEXT('2D SPACE',''
  ) );
#1123 = PCURVE('',#1124,#1129);
#1124 = CYLINDRICAL_SURFACE('',#1125,2.75);
#1125 = AXIS2_PLACEMENT_3D('',#1126,#1127,#1128);
#1126 = CARTESIAN_POINT('',(22.,0.,-79.));
#1127 = DIRECTION('',(0.,0.,1.));
#1128 = DIRECTION('',(1.,0.,-0.));
#1129 = DEFINITIONAL_REPRESENTATION('',(#1130),#1134);
#1130 = LINE('',#1131,#1132);
#1131 = CARTESIAN_POINT('',(0.,14.5));
#1132 = VECTOR('',#1133,1.);
#1133 = DIRECTION('',(1.,0.));
#1134 = ( GEOMETRIC_REPRESENTATION_CONTEXT(2) 
PARAMETRIC_REPRESENTATION_CONTEXT() REPRESENTATION_CONTEXT('2D SPACE',''
  ) );
#1135 = ADVANCED_FACE('',(#1136,#1186),#582,.T.);
#1136 = FACE_BOUND('',#1137,.T.);
#1137 = EDGE_LOOP('',(#1138,#1139,#1140,#1164));
#1138 = ORIENTED_EDGE('',*,*,#567,.T.);
#1139 = ORIENTED_EDGE('',*,*,#599,.T.);
#1140 = ORIENTED_EDGE('',*,*,#1141,.F.);
#1141 = EDGE_CURVE('',#1142,#471,#1144,.T.);
#1142 = VERTEX_POINT('',#1143);
#1143 = CARTESIAN_POINT('',(26.75,-1.16341445919E-15,-64.5));
#1144 = SURFACE_CURVE('',#1145,(#1150,#1157),.PCURVE_S1.);
#1145 = CIRCLE('',#1146,4.75);
#1146 = AXIS2_PLACEMENT_3D('',#1147,#1148,#1149);
#1147 = CARTESIAN_POINT('',(22.,0.,-64.5));
#1148 = DIRECTION('',(0.,0.,1.));
#1149 = DIRECTION('',(1.,0.,-0.));
#1150 = PCURVE('',#582,#1151);
#1151 = DEFINITIONAL_REPRESENTATION('',(#1152),#1156);
#1152 = CIRCLE('',#1153,4.75);
#1153 = AXIS2_PLACEMENT_2D('',#1154,#1155);
#1154 = CARTESIAN_POINT('',(-8.,0.));
#1155 = DIRECTION('',(1.,0.));
#1156 = ( GEOMETRIC_REPRESENTATION_CONTEXT(2) 
PARAMETRIC_REPRESENTATION_CONTEXT() REPRESENTATION_CONTEXT('2D SPACE',''
  ) );
#1157 = PCURVE('',#1092,#1158);
#1158 = DEFINITIONAL_REPRESENTATION('',(#1159),#1163);
#1159 = CIRCLE('',#1160,4.75);
#1160 = AXIS2_PLACEMENT_2D('',#1161,#1162);
#1161 = CARTESIAN_POINT('',(0.,0.));
#1162 = DIRECTION('',(1.,0.));
#1163 = ( GEOMETRIC_REPRESENTATION_CONTEXT(2) 
PARAMETRIC_REPRESENTATION_CONTEXT() REPRESENTATION_CONTEXT('2D SPACE',''
  ) );
#1164 = ORIENTED_EDGE('',*,*,#1165,.F.);
#1165 = EDGE_CURVE('',#492,#1142,#1166,.T.);
#1166 = SURFACE_CURVE('',#1167,(#1172,#1179),.PCURVE_S1.);
#1167 = CIRCLE('',#1168,4.75);
#1168 = AXIS2_PLACEMENT_3D('',#1169,#1170,#1171);
#1169 = CARTESIAN_POINT('',(22.,0.,-64.5));
#1170 = DIRECTION('',(0.,0.,1.));
#1171 = DIRECTION('',(1.,0.,-0.));
#1172 = PCURVE('',#582,#1173);
#1173 = DEFINITIONAL_REPRESENTATION('',(#1174),#1178);
#1174 = CIRCLE('',#1175,4.75);
#1175 = AXIS2_PLACEMENT_2D('',#1176,#1177);
#1176 = CARTESIAN_POINT('',(-8.,0.));
#1177 = DIRECTION('',(1.,0.));
#1178 = ( GEOMETRIC_REPRESENTATION_CONTEXT(2) 
PARAMETRIC_REPRESENTATION_CONTEXT() REPRESENTATION_CONTEXT('2D SPACE',''
  ) );
#1179 = PCURVE('',#1092,#1180);
#1180 = DEFINITIONAL_REPRESENTATION('',(#1181),#1185);
#1181 = CIRCLE('',#1182,4.75);
#1182 = AXIS2_PLACEMENT_2D('',#1183,#1184);
#1183 = CARTESIAN_POINT('',(0.,0.));
#1184 = DIRECTION('',(1.,0.));
#1185 = ( GEOMETRIC_REPRESENTATION_CONTEXT(2) 
PARAMETRIC_REPRESENTATION_CONTEXT() REPRESENTATION_CONTEXT('2D SPACE',''
  ) );
#1186 = FACE_BOUND('',#1187,.T.);
#1187 = EDGE_LOOP('',(#1188));
#1188 = ORIENTED_EDGE('',*,*,#1189,.F.);
#1189 = EDGE_CURVE('',#1190,#1190,#1192,.T.);
#1190 = VERTEX_POINT('',#1191);
#1191 = CARTESIAN_POINT('',(32.75,-6.73555739531E-16,-64.5));
#1192 = SURFACE_CURVE('',#1193,(#1198,#1205),.PCURVE_S1.);
#1193 = CIRCLE('',#1194,2.75);
#1194 = AXIS2_PLACEMENT_3D('',#1195,#1196,#1197);
#1195 = CARTESIAN_POINT('',(30.,0.,-64.5));
#1196 = DIRECTION('',(0.,0.,1.));
#1197 = DIRECTION('',(1.,0.,-0.));
#1198 = PCURVE('',#582,#1199);
#1199 = DEFINITIONAL_REPRESENTATION('',(#1200),#1204);
#1200 = CIRCLE('',#1201,2.75);
#1201 = AXIS2_PLACEMENT_2D('',#1202,#1203);
#1202 = CARTESIAN_POINT('',(0.,0.));
#1203 = DIRECTION('',(1.,0.));
#1204 = ( GEOMETRIC_REPRESENTATION_CONTEXT(2) 
PARAMETRIC_REPRESENTATION_CONTEXT() REPRESENTATION_CONTEXT('2D SPACE',''
  ) );
#1205 = PCURVE('',#773,#1206);
#1206 = DEFINITIONAL_REPRESENTATION('',(#1207),#1211);
#1207 = LINE('',#1208,#1209);
#1208 = CARTESIAN_POINT('',(0.,14.5));
#1209 = VECTOR('',#1210,1.);
#1210 = DIRECTION('',(1.,0.));
#1211 = ( GEOMETRIC_REPRESENTATION_CONTEXT(2) 
PARAMETRIC_REPRESENTATION_CONTEXT() REPRESENTATION_CONTEXT('2D SPACE',''
  ) );
#1212 = ADVANCED_FACE('',(#1213),#773,.F.);
#1213 = FACE_BOUND('',#1214,.F.);
#1214 = EDGE_LOOP('',(#1215,#1236,#1237,#1238,#1239));
#1215 = ORIENTED_EDGE('',*,*,#1216,.T.);
#1216 = EDGE_CURVE('',#627,#1190,#1217,.T.);
#1217 = SEAM_CURVE('',#1218,(#1222,#1229),.PCURVE_S1.);
#1218 = LINE('',#1219,#1220);
#1219 = CARTESIAN_POINT('',(32.75,-6.73555739531E-16,-79.));
#1220 = VECTOR('',#1221,1.);
#1221 = DIRECTION('',(0.,0.,1.));
#1222 = PCURVE('',#773,#1223);
#1223 = DEFINITIONAL_REPRESENTATION('',(#1224),#1228);
#1224 = LINE('',#1225,#1226);
#1225 = CARTESIAN_POINT('',(6.28318530718,-0.));
#1226 = VECTOR('',#1227,1.);
#1227 = DIRECTION('',(0.,1.));
#1228 = ( GEOMETRIC_REPRESENTATION_CONTEXT(2) 
PARAMETRIC_REPRESENTATION_CONTEXT() REPRESENTATION_CONTEXT('2D SPACE',''
  ) );
#1229 = PCURVE('',#773,#1230);
#1230 = DEFINITIONAL_REPRESENTATION('',(#1231),#1235);
#1231 = LINE('',#1232,#1233);
#1232 = CARTESIAN_POINT('',(0.,-0.));
#1233 = VECTOR('',#1234,1.);
#1234 = DIRECTION('',(0.,1.));
#1235 = ( GEOMETRIC_REPRESENTATION_CONTEXT(2) 
PARAMETRIC_REPRESENTATION_CONTEXT() REPRESENTATION_CONTEXT('2D SPACE',''
  ) );
#1236 = ORIENTED_EDGE('',*,*,#1189,.F.);
#1237 = ORIENTED_EDGE('',*,*,#1216,.F.);
#1238 = ORIENTED_EDGE('',*,*,#890,.T.);
#1239 = ORIENTED_EDGE('',*,*,#649,.T.);
#1240 = ADVANCED_FACE('',(#1241),#877,.T.);
#1241 = FACE_BOUND('',#1242,.F.);
#1242 = EDGE_LOOP('',(#1243));
#1243 = ORIENTED_EDGE('',*,*,#862,.F.);
#1244 = ADVANCED_FACE('',(#1245),#1092,.T.);
#1245 = FACE_BOUND('',#1246,.T.);
#1246 = EDGE_LOOP('',(#1247,#1248,#1249));
#1247 = ORIENTED_EDGE('',*,*,#1165,.T.);
#1248 = ORIENTED_EDGE('',*,*,#1141,.T.);
#1249 = ORIENTED_EDGE('',*,*,#1077,.T.);
#1250 = ADVANCED_FACE('',(#1251),#1124,.F.);
#1251 = FACE_BOUND('',#1252,.F.);
#1252 = EDGE_LOOP('',(#1253,#1254,#1277,#1304));
#1253 = ORIENTED_EDGE('',*,*,#1107,.F.);
#1254 = ORIENTED_EDGE('',*,*,#1255,.F.);
#1255 = EDGE_CURVE('',#1256,#1108,#1258,.T.);
#1256 = VERTEX_POINT('',#1257);
#1257 = CARTESIAN_POINT('',(24.75,-6.73555739531E-16,-79.));
#1258 = SEAM_CURVE('',#1259,(#1263,#1270),.PCURVE_S1.);
#1259 = LINE('',#1260,#1261);
#1260 = CARTESIAN_POINT('',(24.75,-6.73555739531E-16,-79.));
#1261 = VECTOR('',#1262,1.);
#1262 = DIRECTION('',(0.,0.,1.));
#1263 = PCURVE('',#1124,#1264);
#1264 = DEFINITIONAL_REPRESENTATION('',(#1265),#1269);
#1265 = LINE('',#1266,#1267);
#1266 = CARTESIAN_POINT('',(6.28318530718,-0.));
#1267 = VECTOR('',#1268,1.);
#1268 = DIRECTION('',(0.,1.));
#1269 = ( GEOMETRIC_REPRESENTATION_CONTEXT(2) 
PARAMETRIC_REPRESENTATION_CONTEXT() REPRESENTATION_CONTEXT('2D SPACE',''
  ) );
#1270 = PCURVE('',#1124,#1271);
#1271 = DEFINITIONAL_REPRESENTATION('',(#1272),#1276);
#1272 = LINE('',#1273,#1274);
#1273 = CARTESIAN_POINT('',(0.,-0.));
#1274 = VECTOR('',#1275,1.);
#1275 = DIRECTION('',(0.,1.));
#1276 = ( GEOMETRIC_REPRESENTATION_CONTEXT(2) 
PARAMETRIC_REPRESENTATION_CONTEXT() REPRESENTATION_CONTEXT('2D SPACE',''
  ) );
#1277 = ORIENTED_EDGE('',*,*,#1278,.T.);
#1278 = EDGE_CURVE('',#1256,#1256,#1279,.T.);
#1279 = SURFACE_CURVE('',#1280,(#1285,#1292),.PCURVE_S1.);
#1280 = CIRCLE('',#1281,2.75);
#1281 = AXIS2_PLACEMENT_3D('',#1282,#1283,#1284);
#1282 = CARTESIAN_POINT('',(22.,0.,-79.));
#1283 = DIRECTION('',(0.,0.,1.));
#1284 = DIRECTION('',(1.,0.,-0.));
#1285 = PCURVE('',#1124,#1286);
#1286 = DEFINITIONAL_REPRESENTATION('',(#1287),#1291);
#1287 = LINE('',#1288,#1289);
#1288 = CARTESIAN_POINT('',(0.,0.));
#1289 = VECTOR('',#1290,1.);
#1290 = DIRECTION('',(1.,0.));
#1291 = ( GEOMETRIC_REPRESENTATION_CONTEXT(2) 
PARAMETRIC_REPRESENTATION_CONTEXT() REPRESENTATION_CONTEXT('2D SPACE',''
  ) );
#1292 = PCURVE('',#1293,#1298);
#1293 = PLANE('',#1294);
#1294 = AXIS2_PLACEMENT_3D('',#1295,#1296,#1297);
#1295 = CARTESIAN_POINT('',(22.,0.,-79.));
#1296 = DIRECTION('',(0.,0.,1.));
#1297 = DIRECTION('',(1.,0.,-0.));
#1298 = DEFINITIONAL_REPRESENTATION('',(#1299),#1303);
#1299 = CIRCLE('',#1300,2.75);
#1300 = AXIS2_PLACEMENT_2D('',#1301,#1302);
#1301 = CARTESIAN_POINT('',(0.,0.));
#1302 = DIRECTION('',(1.,0.));
#1303 = ( GEOMETRIC_REPRESENTATION_CONTEXT(2) 
PARAMETRIC_REPRESENTATION_CONTEXT() REPRESENTATION_CONTEXT('2D SPACE',''
  ) );
#1304 = ORIENTED_EDGE('',*,*,#1255,.T.);
#1305 = ADVANCED_FACE('',(#1306),#1293,.T.);
#1306 = FACE_BOUND('',#1307,.F.);
#1307 = EDGE_LOOP('',(#1308));
#1308 = ORIENTED_EDGE('',*,*,#1278,.F.);
#1309 = ( GEOMETRIC_REPRESENTATION_CONTEXT(3) 
GLOBAL_UNCERTAINTY_ASSIGNED_CONTEXT((#1313)) 
GLOBAL_UNIT_ASSIGNED_CONTEXT((#1310,#1311,#1312)) REPRESENTATION_CONTEXT
('Context #1','3D Context with UNIT and UNCERTAINTY') );
#1310 = ( LENGTH_UNIT() NAMED_UNIT(*) SI_UNIT(.MILLI.,.METRE.) );
#1311 = ( NAMED_UNIT(*) PLANE_ANGLE_UNIT() SI_UNIT($,.RADIAN.) );
#1312 = ( NAMED_UNIT(*) SI_UNIT($,.STERADIAN.) SOLID_ANGLE_UNIT() );
#1313 = UNCERTAINTY_MEASURE_WITH_UNIT(LENGTH_MEASURE(1.E-07),#1310,
  'distance_accuracy_value','confusion accuracy');
#1314 = PRODUCT_RELATED_PRODUCT_CATEGORY('part',$,(#7));
ENDSEC;
END-ISO-10303-21;
